{"glyphs":{"0":{"ha":888,"x_min":28,"x_max":832,"o":"m 28 463 q 47 663 28 575 q 115 810 67 750 q 244 901 163 869 q 450 932 326 932 q 697 869 597 932 q 831 678 796 806 q 860 465 860 575 q 842 267 860 356 q 779 115 825 178 q 652 19 733 53 q 443 -15 571 -15 q 236 22 315 -15 q 106 129 157 58 q 49 268 69 181 q 28 463 28 356 m 308 461 q 310 357 308 411 q 325 258 313 303 q 365 185 338 214 q 442 157 392 157 q 524 188 496 157 q 564 263 551 218 q 577 360 576 308 q 578 454 578 413 q 576 563 578 508 q 563 663 575 618 q 522 735 550 707 q 442 763 494 763 q 362 735 389 763 q 323 663 335 707 q 310 566 311 619 q 308 461 308 513 z "},"1":{"ha":486,"x_min":31,"x_max":428,"o":"m 221 915 l 458 915 l 458 0 l 172 0 l 172 610 l 31 610 q 71 798 31 722 q 221 915 111 874 z "},"2":{"ha":904,"x_min":26,"x_max":850,"o":"m 876 222 l 876 0 l 28 0 q 47 138 26 78 q 108 251 67 199 q 211 351 150 303 q 353 453 272 399 q 431 503 394 481 q 496 549 468 525 q 540 598 524 572 q 556 657 556 624 q 515 728 556 699 q 422 758 475 758 l 103 758 l 103 933 l 460 933 q 610 921 536 933 q 741 878 683 908 q 834 795 799 847 q 869 665 869 743 q 857 584 869 624 q 815 506 844 544 q 738 425 786 467 q 617 338 689 383 q 553 297 578 314 q 510 265 528 279 q 480 241 492 251 q 457 219 468 231 l 876 222 z "},"3":{"ha":897,"x_min":28,"x_max":842,"o":"m 85 743 l 85 932 l 439 932 q 728 865 639 932 q 817 697 817 799 q 672 504 817 576 q 761 475 733 492 q 841 401 813 447 q 869 290 869 354 q 836 153 869 211 q 746 58 803 96 q 615 3 689 21 q 458 -15 540 -15 l 28 -15 l 28 222 l 449 222 q 544 236 506 222 q 583 313 583 250 q 547 394 583 378 q 449 410 511 410 l 229 410 l 229 575 l 408 575 q 501 594 464 575 q 539 657 539 614 q 510 721 539 699 q 432 743 481 743 l 85 743 z "},"4":{"ha":946,"x_min":28,"x_max":890,"o":"m 518 0 l 518 172 l 28 172 l 28 381 l 540 907 l 817 907 l 817 369 l 918 369 l 918 172 l 817 172 l 817 0 l 518 0 m 271 369 l 518 369 l 518 615 l 271 369 z "},"5":{"ha":901,"x_min":39,"x_max":835,"o":"m 72 457 l 71 917 l 765 917 l 765 732 l 289 732 l 289 614 l 531 615 q 665 594 603 615 q 774 535 728 574 q 847 442 821 496 q 874 322 874 389 q 841 178 874 242 q 752 72 808 115 q 619 7 696 29 q 456 -15 543 -15 l 39 -15 l 39 218 l 388 218 q 533 247 478 218 q 589 333 589 275 q 546 428 589 400 q 413 457 503 457 l 72 457 z "},"6":{"ha":894,"x_min":28,"x_max":839,"o":"m 731 932 l 726 703 l 456 703 q 347 675 378 697 q 307 585 317 653 q 415 615 365 611 q 535 617 464 619 q 667 588 607 614 q 772 520 728 563 q 842 422 817 478 q 867 301 867 365 q 840 173 867 232 q 764 71 814 114 q 641 5 714 28 q 476 -15 568 -18 q 272 19 357 -15 q 132 115 186 53 q 53 262 78 176 q 28 451 28 347 q 144 816 28 700 q 465 932 260 932 l 731 932 m 299 308 l 301 290 q 313 249 304 268 q 342 215 322 229 q 394 192 361 200 q 479 182 428 183 q 539 188 510 182 q 591 209 568 194 q 628 248 614 224 q 642 307 642 272 q 590 397 642 372 q 476 421 539 421 q 348 387 396 421 q 299 308 300 353 z "},"7":{"ha":881,"x_min":28,"x_max":825,"o":"m 28 701 l 28 915 l 853 915 l 853 744 l 464 0 l 126 0 l 531 701 l 28 701 z "},"8":{"ha":888,"x_min":28,"x_max":832,"o":"m 197 496 q 144 528 171 513 q 100 564 117 544 q 58 688 58 614 q 179 875 58 803 q 428 932 274 932 q 729 862 632 932 q 826 685 826 792 q 794 581 826 625 q 696 497 761 536 q 818 413 776 472 q 860 267 860 353 q 824 126 860 181 q 731 40 789 72 q 599 -3 672 8 q 450 -15 525 -15 q 290 -3 367 -15 q 156 40 214 8 q 63 128 97 72 q 28 269 28 183 q 69 407 28 342 q 197 496 110 472 m 325 672 q 358 596 325 625 q 446 567 390 567 q 526 595 494 567 q 557 669 557 624 q 524 747 557 717 q 442 776 492 776 q 357 747 389 776 q 325 672 325 718 m 310 276 q 351 178 310 217 q 444 140 392 140 q 535 179 496 140 q 575 278 575 218 q 535 378 575 339 q 442 417 494 417 q 349 379 389 417 q 310 276 310 342 z "},"9":{"ha":894,"x_min":28,"x_max":839,"o":"m 114 -15 l 114 218 l 431 218 q 532 244 494 222 q 576 339 569 267 q 499 324 531 328 q 442 319 468 319 q 391 320 417 318 q 331 325 365 322 q 106 411 183 336 q 28 614 28 486 q 54 744 28 685 q 131 847 81 804 q 253 915 181 890 q 417 940 325 940 q 662 906 572 942 q 797 807 751 871 q 855 655 843 743 q 867 463 867 567 q 847 249 867 339 q 776 100 826 158 q 642 13 726 42 q 428 -15 557 -15 l 114 -15 m 596 626 l 596 629 q 576 690 592 667 q 536 726 560 713 q 483 743 513 739 q 425 747 454 747 q 368 743 397 747 q 315 726 339 739 q 275 691 290 714 q 260 629 260 668 q 272 568 260 590 q 305 534 285 546 q 351 519 325 522 q 407 517 378 517 q 469 520 436 517 q 531 535 503 524 q 578 567 560 546 q 596 626 596 589 z "}," ":{"ha":694,"x_min":0,"x_max":0,"o":""},"!":{"ha":358,"x_min":28,"x_max":303,"o":"m 28 707 l 28 915 l 331 915 l 331 707 l 272 288 l 85 288 l 28 707 m 39 0 l 39 225 l 319 225 l 319 0 l 39 0 z "},"\"":{"ha":700,"x_min":0,"x_max":642,"o":"m 28 797 l 28 949 l 311 949 l 311 797 l 267 611 l 75 611 l 28 797 m 358 714 l 358 865 l 642 865 l 642 714 l 597 528 l 406 528 l 358 714 z "},"#":{"ha":906,"x_min":28,"x_max":850,"o":"m 28 376 l 161 376 l 197 535 l 28 535 l 28 707 l 236 707 l 286 932 l 483 932 l 433 707 l 585 707 l 635 932 l 832 932 l 783 707 l 878 707 l 878 535 l 744 535 l 708 376 l 878 376 l 878 204 l 671 204 l 622 -15 l 424 -15 l 472 204 l 321 204 l 271 -15 l 75 -15 l 125 204 l 28 204 l 28 376 m 396 535 l 358 376 l 511 376 l 547 535 l 396 535 z "},"$":{"ha":917,"x_min":28,"x_max":861,"o":"m 858 700 l 600 664 q 565 725 581 708 q 513 760 549 742 l 513 581 q 690 526 619 553 q 796 472 761 500 q 889 281 889 396 q 857 156 889 210 q 772 65 825 101 q 651 8 718 28 q 513 -15 583 -12 l 513 -132 l 413 -132 l 413 -15 q 158 62 261 -3 q 28 263 56 126 l 308 293 q 342 203 321 231 q 413 156 364 176 l 413 375 q 281 411 343 392 q 171 460 218 431 q 96 537 124 490 q 68 656 68 583 q 155 842 68 767 q 413 925 242 917 l 413 986 l 513 986 l 513 925 q 751 858 669 915 q 858 700 833 800 m 413 603 l 413 763 q 350 730 368 749 q 332 685 332 711 q 351 638 332 658 q 413 603 369 617 m 513 347 l 513 147 q 599 187 572 160 q 626 247 626 214 q 603 302 626 278 q 513 347 581 326 z "},"%":{"ha":1340,"x_min":28,"x_max":1285,"o":"m 307 -47 l 893 933 l 1040 933 l 451 -47 l 307 -47 m 29 692 q 46 785 28 742 q 99 863 64 829 q 186 915 135 896 q 304 933 238 933 q 506 867 432 933 q 579 692 579 801 q 506 516 579 582 q 304 450 432 450 q 186 469 238 450 q 99 520 135 488 q 46 597 64 553 q 29 692 28 642 m 224 690 q 240 596 224 636 q 304 556 256 556 q 357 578 339 556 q 385 690 385 614 q 369 785 385 744 q 304 825 353 825 q 251 803 269 825 q 224 690 224 767 m 763 196 q 833 367 760 297 q 1038 438 906 438 q 1239 372 1165 438 q 1313 196 1313 306 q 1239 21 1313 86 q 1038 -44 1165 -44 q 833 25 906 -44 q 763 196 760 94 m 957 196 q 973 100 957 139 q 1038 61 989 61 q 1090 83 1072 61 q 1118 196 1118 118 q 1102 290 1118 250 q 1038 331 1086 331 q 985 308 1003 331 q 957 196 957 272 z "},"&":{"ha":1156,"x_min":28,"x_max":1100,"o":"m 831 444 l 1050 401 q 1034 352 1042 374 q 1017 312 1026 331 q 997 275 1008 293 q 972 235 986 257 l 1078 169 q 1101 156 1089 164 q 1128 142 1114 149 l 976 -15 q 890 31 935 4 q 810 76 844 58 q 736 38 774 54 q 663 13 699 22 q 553 -9 611 -3 q 431 -15 494 -15 q 280 -1 353 -15 q 151 44 207 14 q 61 125 94 75 q 28 246 28 175 q 87 394 28 324 q 278 513 146 464 q 201 617 222 572 q 181 707 181 661 q 263 869 181 806 q 514 932 346 932 q 767 872 686 932 q 847 726 847 811 q 831 647 847 681 q 785 585 814 613 q 718 535 756 558 q 639 488 681 513 q 714 423 675 454 q 793 364 753 392 q 831 444 815 406 m 506 606 q 590 665 560 633 q 619 725 619 697 q 594 774 619 754 q 525 794 569 794 q 455 772 482 794 q 428 718 428 750 q 506 606 428 679 m 404 383 q 327 320 346 347 q 308 265 308 293 q 352 183 308 218 q 465 147 396 147 q 636 201 540 147 q 533 277 590 232 q 404 383 475 322 z "},"'":{"ha":339,"x_min":28,"x_max":283,"o":"m 28 765 l 28 917 l 311 917 l 311 765 l 267 579 l 75 579 l 28 765 z "},"(":{"ha":475,"x_min":28,"x_max":419,"o":"m 272 932 l 447 932 q 369 758 403 842 q 317 597 336 674 q 283 317 283 467 q 447 -271 283 32 l 272 -271 q 165 -122 211 -193 q 89 20 119 -51 q 43 167 58 92 q 28 332 28 243 q 85 633 28 490 q 272 932 143 775 z "},")":{"ha":475,"x_min":28,"x_max":419,"o":"m 203 932 l 28 932 q 158 597 121 747 q 192 317 192 467 q 151 27 192 174 q 28 -271 111 -119 l 203 -271 q 310 -122 264 -193 q 386 20 356 -51 q 432 167 417 92 q 447 332 447 243 q 390 633 447 490 q 203 932 332 775 z "},"*":{"ha":594,"x_min":28,"x_max":539,"o":"m 233 838 l 219 933 l 374 933 l 361 838 q 344 760 357 803 q 390 782 371 772 q 422 797 408 792 l 519 838 l 567 706 l 461 685 q 425 682 447 683 q 374 679 403 681 q 436 629 414 649 l 508 558 l 383 474 l 331 558 q 316 585 325 568 q 294 629 307 603 q 273 583 282 600 q 258 558 264 565 l 207 474 l 78 558 l 156 629 q 189 657 172 644 q 219 679 206 669 q 183 683 204 681 q 136 690 163 686 l 28 706 l 78 838 l 175 797 q 201 785 182 794 q 250 760 221 776 q 240 806 244 786 q 233 838 236 825 z "},"+":{"ha":813,"x_min":28,"x_max":757,"o":"m 28 356 l 28 558 l 293 558 l 293 800 l 517 800 l 517 558 l 785 558 l 785 356 l 517 356 l 517 117 l 293 117 l 293 356 l 28 356 z "},",":{"ha":358,"x_min":28,"x_max":303,"o":"m 28 0 l 28 253 l 331 253 l 331 42 q 318 -60 331 -15 q 277 -140 306 -104 q 203 -203 249 -175 q 94 -258 158 -232 l 28 -147 q 139 -79 108 -112 q 172 0 169 -46 l 28 0 z "},"-":{"ha":467,"x_min":28,"x_max":411,"o":"m 28 235 l 28 432 l 439 432 l 439 235 l 28 235 z "},".":{"ha":358,"x_min":28,"x_max":303,"o":"m 28 0 l 28 256 l 331 256 l 331 0 l 28 0 z "},"/":{"ha":456,"x_min":28,"x_max":400,"o":"m 28 -15 l 283 932 l 428 932 l 172 -15 l 28 -15 z "},":":{"ha":358,"x_min":36,"x_max":285,"o":"m 178 653 q 278 617 236 653 q 321 533 321 582 q 278 450 321 485 q 178 415 236 415 q 78 450 119 415 q 36 533 36 485 q 78 617 36 582 q 178 653 119 653 m 178 243 q 276 209 235 243 q 318 126 318 175 q 276 44 318 78 q 178 10 235 10 q 80 44 121 10 q 39 126 39 78 q 80 209 39 175 q 178 243 121 243 z "},";":{"ha":360,"x_min":38,"x_max":285,"o":"m 179 657 q 280 622 238 657 q 322 538 322 586 q 280 454 322 489 q 179 419 238 419 q 79 454 121 419 q 38 538 38 489 q 79 622 38 586 q 179 657 121 657 m 179 247 q 278 213 236 247 q 319 131 319 178 q 302 51 319 86 q 261 -13 285 15 q 213 -63 238 -42 q 169 -99 188 -85 l 104 -99 l 122 17 q 62 63 83 31 q 40 131 40 94 q 81 213 40 178 q 179 247 122 247 z "},"<":{"ha":844,"x_min":28,"x_max":789,"o":"m 817 289 l 817 69 l 28 364 l 28 550 l 817 844 l 817 624 l 336 457 l 817 289 z "},"=":{"ha":814,"x_min":28,"x_max":758,"o":"m 28 510 l 28 713 l 786 713 l 786 510 l 28 510 m 28 201 l 28 404 l 786 404 l 786 201 l 28 201 z "},">":{"ha":844,"x_min":28,"x_max":789,"o":"m 28 289 l 28 69 l 817 364 l 817 550 l 28 844 l 28 624 l 508 457 l 28 289 z "},"?":{"ha":824,"x_min":28,"x_max":768,"o":"m 522 288 l 258 288 l 258 311 q 271 401 258 365 q 308 467 283 438 q 369 524 332 496 q 456 589 406 551 q 511 665 511 631 q 489 718 511 699 q 421 738 467 738 q 340 708 372 738 q 297 606 307 678 l 28 635 q 136 851 42 769 q 425 933 231 933 q 562 918 501 933 q 669 875 622 903 q 796 671 796 799 q 751 549 796 596 q 631 449 707 503 q 579 410 600 426 q 546 376 558 393 q 528 339 533 360 q 522 288 522 318 m 250 0 l 250 225 l 533 225 l 533 0 l 250 0 z "},"@":{"ha":1115,"x_min":28,"x_max":1060,"o":"m 699 717 l 835 717 l 749 222 q 747 209 747 214 q 746 200 746 204 q 774 176 746 176 q 807 183 789 176 q 846 201 825 190 q 944 310 906 239 q 982 482 982 382 q 877 743 982 647 q 594 839 772 839 q 402 803 488 839 q 257 704 317 767 q 165 559 197 642 q 133 383 133 476 q 165 209 133 289 q 254 71 196 129 q 396 -20 313 13 q 585 -53 479 -53 q 944 63 779 -53 l 1088 63 q 1031 9 1058 33 q 979 -32 1004 -15 q 803 -115 903 -83 q 588 -146 703 -146 q 360 -104 463 -146 q 183 9 257 -62 q 69 178 110 81 q 28 385 28 275 q 68 597 28 497 q 183 771 108 696 q 361 889 257 846 q 593 932 465 932 q 794 899 703 932 q 950 806 885 865 q 1051 665 1015 747 q 1088 485 1088 583 q 1033 269 1088 367 q 876 114 979 171 q 726 71 794 71 q 619 144 643 71 q 534 86 572 103 q 451 69 496 69 q 293 139 360 69 q 226 338 226 208 q 244 466 226 396 q 299 597 263 536 q 392 698 336 657 q 524 739 449 739 q 610 718 572 739 q 688 647 649 697 l 699 717 m 372 307 q 396 206 372 251 q 475 161 419 161 q 561 203 528 161 q 613 301 594 244 q 639 418 632 358 q 646 514 646 478 q 617 606 646 575 q 547 638 588 638 q 467 607 501 638 q 424 546 442 583 q 394 466 406 508 q 377 381 382 424 q 372 307 372 339 z "},"A":{"ha":1164,"x_min":28,"x_max":1108,"o":"m 799 0 l 742 164 l 410 164 l 363 0 l 28 0 l 278 915 l 879 915 l 1136 0 l 799 0 m 464 363 l 703 363 l 575 724 l 464 363 z "},"B":{"ha":996,"x_min":28,"x_max":940,"o":"m 28 0 l 28 915 l 617 915 q 842 850 764 915 q 921 688 921 785 q 864 549 921 606 q 756 488 825 508 q 917 406 865 464 q 968 260 968 347 q 931 131 968 188 q 831 42 894 75 q 773 24 811 32 q 694 11 735 17 q 617 3 653 6 q 569 0 582 0 l 28 0 m 344 729 l 344 557 l 481 557 q 583 579 554 557 q 613 644 613 601 q 584 707 613 685 q 483 729 556 729 l 344 729 m 344 382 l 344 197 l 506 197 q 619 222 586 197 q 653 292 653 247 q 619 357 653 332 q 504 382 586 382 l 344 382 z "},"C":{"ha":865,"x_min":28,"x_max":810,"o":"m 838 196 l 838 -17 l 558 -17 q 338 15 436 -17 q 170 106 239 46 q 65 256 101 167 q 28 460 28 344 q 163 809 28 686 q 543 932 297 932 l 838 932 l 838 719 l 550 719 q 451 697 488 714 q 386 642 415 681 q 344 463 344 583 q 388 275 344 346 q 539 196 432 204 l 838 196 z "},"D":{"ha":992,"x_min":28,"x_max":936,"o":"m 28 0 l 28 915 l 494 915 q 701 882 613 915 q 847 789 789 849 q 935 646 906 729 q 964 461 964 563 q 951 319 964 389 q 905 190 938 249 q 818 88 872 131 q 683 25 764 44 q 494 0 579 0 l 28 0 m 421 708 l 342 708 l 342 207 l 419 207 q 536 222 492 207 q 606 268 581 238 q 640 345 631 299 q 649 454 649 392 q 639 567 649 519 q 604 646 629 614 q 535 693 579 678 q 421 708 490 708 z "},"E":{"ha":1024,"x_min":28,"x_max":968,"o":"m 28 -8 l 28 917 l 872 917 l 872 692 l 344 692 l 344 557 l 833 557 l 833 354 l 344 354 l 344 219 l 996 219 l 996 -8 l 28 -8 z "},"F":{"ha":900,"x_min":28,"x_max":844,"o":"m 28 -10 l 28 915 l 872 915 l 872 690 l 344 690 l 344 556 l 833 556 l 833 353 l 344 353 l 344 -10 l 28 -10 z "},"G":{"ha":1038,"x_min":28,"x_max":982,"o":"m 1010 482 l 1010 -15 l 558 -14 q 338 17 436 -14 q 170 109 239 49 q 65 258 101 169 q 28 463 28 347 q 163 812 28 689 q 543 935 297 935 l 838 935 l 838 722 l 550 722 q 451 700 488 717 q 386 644 415 683 q 344 465 344 586 q 388 278 344 349 q 539 199 432 207 l 746 199 l 746 296 l 600 296 l 600 482 l 1010 482 z "},"H":{"ha":1083,"x_min":28,"x_max":1124,"o":"m 28 0 l 28 915 l 342 915 l 342 594 l 686 594 l 686 915 l 1151 915 l 1151 693 l 1003 693 l 1003 0 l 686 0 l 686 369 l 342 369 l 342 0 l 28 0 z "},"I":{"ha":371,"x_min":28,"x_max":315,"o":"m 28 0 l 28 915 l 343 915 l 343 0 l 28 0 z "},"J":{"ha":740,"x_min":28,"x_max":685,"o":"m 397 351 l 397 917 l 713 917 l 713 418 q 694 247 713 325 q 632 112 676 168 q 511 24 588 56 q 318 -8 435 -8 l 28 -8 l 28 215 l 297 215 q 374 242 350 215 q 397 351 397 268 z "},"K":{"ha":1122,"x_min":28,"x_max":1079,"o":"m 28 0 l 28 915 l 342 915 l 342 522 l 650 915 l 1015 915 l 636 419 q 708 319 668 358 q 803 258 749 281 q 933 226 858 235 q 1107 215 1007 217 l 1107 0 l 829 0 q 681 28 746 6 q 568 80 615 51 q 490 135 521 108 q 444 176 458 163 l 342 304 l 342 0 l 28 0 z "},"L":{"ha":861,"x_min":28,"x_max":806,"o":"m 28 0 l 28 915 l 343 915 l 343 225 l 833 225 l 833 0 l 28 0 z "},"M":{"ha":1201,"x_min":28,"x_max":1146,"o":"m 28 0 l 28 915 l 349 915 l 615 443 l 853 915 l 1174 915 l 1174 0 l 853 0 l 853 433 l 615 0 l 349 433 l 349 0 l 28 0 z "},"N":{"ha":1086,"x_min":28,"x_max":1136,"o":"m 28 0 l 28 915 l 322 915 l 706 410 l 706 915 l 1164 915 l 1164 690 l 1003 690 l 1003 0 l 706 0 l 325 501 l 325 0 l 28 0 z "},"O":{"ha":1111,"x_min":28,"x_max":1056,"o":"m 28 457 q 167 806 28 681 q 554 932 306 932 q 946 809 808 932 q 1083 465 1083 686 q 951 108 1082 231 q 567 -15 819 -15 q 344 16 444 -15 q 174 107 244 47 q 66 255 104 167 q 28 457 28 343 m 343 456 q 401 256 343 317 q 556 196 458 196 q 714 256 658 196 q 769 468 769 315 q 711 657 769 597 q 553 717 653 717 q 401 656 458 717 q 343 456 343 594 z "},"P":{"ha":1003,"x_min":28,"x_max":947,"o":"m 368 1 l 28 1 l 28 918 l 553 918 q 706 902 631 918 q 842 849 782 886 q 938 748 901 811 q 974 589 974 685 q 938 448 974 504 q 842 358 901 392 q 708 312 783 325 q 553 299 632 299 l 368 299 l 368 1 m 371 700 l 371 518 l 497 518 q 672 540 624 518 q 721 617 721 561 q 711 650 721 635 q 676 676 701 665 q 606 694 650 688 q 494 700 563 700 l 371 700 z "},"Q":{"ha":1150,"x_min":28,"x_max":1094,"o":"m 972 135 q 1021 105 1001 117 q 1050 88 1040 93 q 1122 56 1076 74 l 1035 -103 q 979 -76 1010 -92 q 918 -43 949 -61 q 860 -7 888 -25 q 814 25 833 11 q 553 -15 713 -15 q 186 93 322 -15 q 28 456 28 222 q 167 808 28 682 q 554 933 306 933 q 945 810 807 933 q 1083 460 1083 686 q 972 135 1083 257 m 731 279 q 769 460 769 342 q 712 659 769 600 q 553 718 654 718 q 401 657 458 718 q 343 468 343 596 q 400 257 343 318 q 556 196 457 196 q 617 203 592 196 q 566 235 597 219 q 492 268 535 251 l 542 369 q 590 359 571 365 q 629 343 610 353 q 672 318 649 333 q 731 279 694 303 z "},"R":{"ha":1108,"x_min":28,"x_max":1053,"o":"m 368 0 l 28 0 l 28 917 l 553 917 q 706 901 631 917 q 842 847 782 885 q 938 746 901 808 q 974 592 975 683 q 959 467 972 517 q 926 385 946 418 q 881 333 906 353 q 836 300 857 314 l 797 288 q 800 265 800 278 q 824 240 800 251 q 906 222 847 229 q 1081 214 964 214 l 1081 -4 l 793 -4 q 658 44 717 13 q 549 116 599 75 q 455 204 499 157 q 368 297 411 251 l 368 0 m 371 675 l 371 493 l 497 493 q 672 515 624 493 q 721 592 721 536 q 711 625 721 610 q 676 651 701 640 q 606 669 650 663 q 494 675 563 675 l 371 675 z "},"S":{"ha":778,"x_min":-221,"x_max":1050,"o":"m -221 -8 l -221 213 l 242 213 q 282 228 269 221 q 283 270 294 236 q 229 381 271 304 q 106 603 188 457 q 74 723 75 665 q 99 824 72 781 q 179 892 125 867 q 317 918 233 918 l 829 919 l 829 694 l 489 694 q 455 684 460 696 q 472 632 450 672 q 545 515 494 592 q 679 310 596 438 q 719 219 707 274 q 713 115 731 165 q 642 28 696 64 q 483 -8 588 -8 l -221 -8 z "},"T":{"ha":1017,"x_min":28,"x_max":961,"o":"m 28 699 l 28 919 l 989 919 l 989 699 l 663 699 l 663 0 l 347 0 l 347 699 l 28 699 z "},"U":{"ha":1031,"x_min":28,"x_max":975,"o":"m 689 422 l 689 917 l 1003 917 l 1003 369 q 967 154 1003 232 q 865 38 931 76 q 711 -8 800 0 q 515 -17 622 -17 q 317 -8 407 -17 q 163 38 226 0 q 63 154 99 76 q 28 369 28 232 l 28 917 l 342 917 l 342 426 q 353 333 342 367 q 388 283 365 300 q 444 263 411 267 q 518 260 476 260 q 590 265 558 260 q 644 286 622 269 q 678 335 667 303 q 689 422 689 367 z "},"V":{"ha":1164,"x_min":28,"x_max":1108,"o":"m 799 911 l 582 196 l 363 911 l 28 911 l 278 -4 l 879 -4 l 1136 911 l 799 911 z "},"W":{"ha":1478,"x_min":28,"x_max":1422,"o":"m 283 0 l 28 915 l 344 915 l 457 496 l 550 915 l 922 915 l 1028 496 l 1136 915 l 1450 915 l 1211 0 l 853 0 l 746 432 l 649 0 l 283 0 z "},"X":{"ha":1161,"x_min":28,"x_max":1106,"o":"m 378 476 l 58 915 l 406 915 l 586 635 l 761 915 l 1104 915 l 788 472 l 1133 0 l 781 0 l 581 294 l 378 0 l 28 0 l 378 476 z "},"Y":{"ha":1163,"x_min":28,"x_max":1107,"o":"m 424 383 l 28 915 l 376 915 l 582 607 l 788 915 l 1135 915 l 740 383 l 740 0 l 424 0 l 424 383 z "},"Z":{"ha":1021,"x_min":28,"x_max":965,"o":"m 28 707 l 28 917 l 993 917 l 993 707 l 449 215 l 993 215 l 993 0 l 28 0 l 28 215 l 544 707 l 28 707 z "},"[":{"ha":482,"x_min":28,"x_max":426,"o":"m 28 -254 l 28 917 l 454 917 l 454 719 l 286 719 l 286 -57 l 454 -57 l 454 -254 l 28 -254 z "},"\\":{"ha":456,"x_min":28,"x_max":400,"o":"m 428 -15 l 172 932 l 28 932 l 283 -15 l 428 -15 z "},"]":{"ha":481,"x_min":28,"x_max":425,"o":"m 453 -254 l 453 917 l 28 917 l 28 719 l 194 719 l 194 -57 l 28 -57 l 28 -254 l 453 -254 z "},"^":{"ha":817,"x_min":28,"x_max":761,"o":"m 28 424 l 311 933 l 506 933 l 789 424 l 544 424 l 410 731 l 275 424 l 28 424 z "},"_":{"ha":783,"x_min":28,"x_max":728,"o":"m 28 -160 l 28 -97 l 756 -97 l 756 -160 l 28 -160 z "},"`":{"ha":411,"x_min":28,"x_max":356,"o":"m 250 746 l 28 932 l 269 932 l 383 746 l 250 746 z "},"a":{"ha":906,"x_min":28,"x_max":850,"o":"m 321 449 l 50 474 q 94 575 65 539 q 178 638 124 611 q 285 667 217 656 q 432 678 353 678 q 635 665 558 678 q 764 613 713 653 q 821 533 800 583 q 842 435 842 482 l 842 140 q 849 67 842 93 q 878 -1 856 40 l 613 -1 q 592 38 597 25 q 582 81 588 51 q 527 40 554 57 q 472 13 500 22 q 391 -9 435 -3 q 297 -15 347 -15 q 97 39 165 -15 q 28 174 28 93 q 78 299 28 250 q 260 372 126 347 q 365 391 326 385 q 433 403 404 397 q 492 417 463 408 q 567 442 521 425 q 545 508 567 489 q 469 526 524 526 q 364 507 397 526 q 321 449 338 492 m 567 274 l 567 314 q 506 297 538 304 q 444 282 475 289 q 344 248 376 267 q 311 194 311 229 q 335 144 311 164 q 403 125 358 125 q 522 167 478 125 q 567 274 567 208 z "},"b":{"ha":868,"x_min":28,"x_max":813,"o":"m 28 0 l 28 917 l 314 917 l 314 599 q 529 679 399 679 q 752 592 664 679 q 840 342 840 504 q 817 192 840 258 q 751 79 793 125 q 653 9 710 33 q 531 -15 597 -15 q 403 10 456 -15 q 293 97 350 36 l 293 0 l 28 0 m 311 333 q 347 209 311 247 q 439 171 383 171 q 524 209 489 171 q 558 336 558 247 q 524 452 558 415 q 442 489 489 489 q 348 450 385 489 q 311 333 311 411 z "},"c":{"ha":908,"x_min":28,"x_max":853,"o":"m 613 260 l 881 232 q 751 51 843 118 q 478 -15 658 -15 q 301 3 383 -15 q 158 64 219 22 q 63 171 97 106 q 28 328 28 236 q 67 499 28 431 q 144 588 94 549 q 246 647 194 628 q 457 678 328 678 q 733 619 639 678 q 865 449 828 561 l 600 418 q 465 504 574 504 q 353 459 396 504 q 310 322 310 414 q 353 197 310 240 q 463 154 396 154 q 613 260 576 154 z "},"d":{"ha":867,"x_min":28,"x_max":811,"o":"m 554 917 l 839 917 l 839 0 l 575 0 l 575 97 q 474 14 522 38 q 338 -15 414 -15 q 197 15 256 -15 q 101 95 139 46 q 46 208 64 144 q 28 339 28 272 q 115 591 28 503 q 339 679 203 679 q 554 599 472 679 l 554 917 m 556 333 q 519 450 556 411 q 426 489 483 489 q 344 452 378 489 q 311 328 311 415 q 345 209 311 247 q 431 171 379 171 q 520 209 485 171 q 556 333 556 247 z "},"e":{"ha":910,"x_min":28,"x_max":854,"o":"m 882 297 l 882 268 l 315 268 q 353 176 324 208 q 458 135 392 135 q 527 147 499 135 q 588 194 556 160 l 867 172 q 790 79 831 115 q 699 22 749 43 q 590 -7 650 1 q 453 -15 529 -15 q 283 6 361 -15 q 149 71 206 28 q 60 178 92 114 q 28 329 28 243 q 59 476 28 411 q 145 586 90 542 q 276 654 200 631 q 444 678 353 678 q 769 583 656 678 q 882 297 882 488 m 317 389 l 594 389 q 550 494 586 463 q 456 526 514 526 q 358 490 393 526 q 317 389 322 453 z "},"f":{"ha":639,"x_min":28,"x_max":583,"o":"m 417 664 l 551 664 l 551 478 l 417 478 l 417 0 l 133 0 l 133 478 l 28 478 l 28 664 l 133 664 l 133 694 q 196 874 133 814 q 396 933 258 933 q 487 928 433 933 q 611 917 540 924 l 581 763 q 499 771 531 771 q 428 744 439 771 q 417 664 417 717 z "},"g":{"ha":869,"x_min":28,"x_max":814,"o":"m 576 565 l 576 664 l 842 664 l 842 8 q 807 -124 842 -71 q 715 -210 772 -178 q 585 -256 658 -242 q 436 -269 513 -269 q 285 -261 356 -269 q 162 -229 214 -253 q 79 -162 110 -206 q 49 -49 49 -118 q 49 -33 49 -42 q 50 -14 49 -25 l 325 -42 q 365 -96 335 -82 q 435 -110 396 -110 q 526 -80 496 -110 q 556 22 556 -50 l 556 122 q 472 58 515 79 q 332 28 410 28 q 93 143 183 28 q 28 361 28 225 q 111 598 28 517 q 331 679 194 679 q 472 653 417 679 q 576 565 528 626 m 311 343 q 344 235 311 271 q 433 200 378 200 q 522 236 486 200 q 558 346 558 272 q 521 457 558 418 q 429 496 483 496 q 343 460 375 496 q 311 343 311 425 z "},"h":{"ha":835,"x_min":28,"x_max":779,"o":"m 28 0 l 28 915 l 310 915 l 310 578 q 424 655 367 632 q 558 678 481 678 q 740 615 674 678 q 807 422 807 553 l 807 0 l 522 0 l 522 364 q 497 453 522 428 q 425 479 472 479 q 342 444 374 479 q 310 318 310 408 l 310 0 l 28 0 z "},"i":{"ha":338,"x_min":28,"x_max":282,"o":"m 28 742 l 28 915 l 310 915 l 310 742 l 28 742 m 28 0 l 28 663 l 310 663 l 310 0 l 28 0 z "},"j":{"ha":506,"x_min":28,"x_max":450,"o":"m 194 742 l 194 917 l 478 917 l 478 742 l 194 742 m 194 42 l 194 664 l 478 664 l 478 19 q 469 -99 478 -46 q 435 -191 461 -153 q 360 -250 408 -229 q 231 -271 311 -271 q 28 -247 153 -271 l 69 -62 q 119 -69 108 -69 q 175 -47 156 -69 q 194 42 194 -25 z "},"k":{"ha":918,"x_min":28,"x_max":863,"o":"m 28 0 l 28 915 l 317 915 l 317 443 l 528 663 l 875 663 l 611 431 l 890 0 l 572 0 l 422 265 l 317 172 l 317 0 l 28 0 z "},"l":{"ha":339,"x_min":28,"x_max":283,"o":"m 28 0 l 28 915 l 311 915 l 311 0 l 28 0 z "},"m":{"ha":1307,"x_min":28,"x_max":1251,"o":"m 28 0 l 28 664 l 292 664 l 292 568 q 406 653 349 628 q 546 679 464 679 q 686 651 635 679 q 771 568 738 624 q 833 622 804 600 q 892 656 863 643 q 953 674 921 668 q 1026 679 986 679 q 1212 616 1144 679 q 1279 418 1279 553 l 1279 0 l 996 0 l 996 378 q 972 451 996 422 q 906 481 947 481 q 825 448 856 481 q 794 343 794 415 l 794 0 l 511 0 l 511 365 q 493 448 511 415 q 422 481 475 481 q 342 448 374 481 q 311 339 311 415 l 311 0 l 28 0 z "},"n":{"ha":835,"x_min":28,"x_max":779,"o":"m 28 0 l 28 664 l 290 664 l 290 556 q 410 651 350 622 q 557 679 471 679 q 741 616 675 679 q 807 422 807 553 l 807 0 l 522 0 l 522 365 q 497 454 522 428 q 425 481 472 481 q 342 445 374 481 q 310 319 310 410 l 310 0 l 28 0 z "},"o":{"ha":903,"x_min":28,"x_max":847,"o":"m 28 329 q 60 476 28 411 q 149 585 93 540 q 283 653 206 629 q 450 678 361 678 q 785 563 672 678 q 875 333 875 471 q 843 185 875 250 q 754 76 811 121 q 619 8 697 32 q 450 -15 542 -15 q 164 65 274 -15 q 28 329 28 168 m 311 329 q 351 199 311 242 q 453 157 392 157 q 553 199 514 157 q 592 332 592 240 q 552 460 592 418 q 454 503 513 503 q 352 460 393 503 q 311 329 311 418 z "},"p":{"ha":868,"x_min":28,"x_max":813,"o":"m 314 -253 l 28 -253 l 28 664 l 293 664 l 293 565 q 346 618 319 597 q 394 650 372 639 q 459 672 425 664 q 531 679 493 679 q 669 649 611 679 q 766 569 728 618 q 822 456 804 519 q 840 325 840 392 q 752 72 840 160 q 529 -15 664 -15 q 314 65 401 -15 l 314 -253 m 311 331 q 349 213 311 251 q 442 175 386 175 q 524 211 490 175 q 558 335 558 247 q 524 455 558 417 q 439 493 489 493 q 348 454 385 493 q 311 331 311 415 z "},"q":{"ha":867,"x_min":28,"x_max":811,"o":"m 839 664 l 839 -253 l 554 -253 l 554 65 q 339 -15 469 -15 q 116 72 204 -15 q 28 322 28 160 q 51 473 28 407 q 117 585 75 539 q 215 655 158 631 q 338 679 272 679 q 467 654 414 679 q 575 565 521 629 l 575 664 l 839 664 m 556 331 q 520 454 556 415 q 431 493 485 493 q 345 455 379 493 q 311 328 311 417 q 344 211 311 247 q 426 175 378 175 q 519 213 483 175 q 556 331 556 251 z "},"r":{"ha":636,"x_min":28,"x_max":581,"o":"m 28 0 l 28 664 l 292 664 l 292 556 q 371 652 331 625 q 471 679 411 679 q 608 644 535 679 l 519 463 q 442 482 468 482 q 356 440 388 482 q 311 222 311 383 l 311 0 l 28 0 z "},"s":{"ha":839,"x_min":28,"x_max":783,"o":"m 28 183 l 308 207 q 356 143 325 163 q 439 124 386 124 q 517 138 482 124 q 553 186 553 153 q 514 231 553 221 q 399 254 475 242 q 276 275 336 264 q 167 308 215 286 q 88 369 118 331 q 58 471 58 407 q 149 625 64 572 q 417 678 235 678 q 543 672 486 678 q 646 647 600 667 q 726 593 692 628 q 786 500 761 558 l 518 476 q 476 528 507 513 q 403 544 444 544 q 333 529 356 544 q 311 492 311 514 q 351 449 311 458 q 460 432 392 439 q 585 415 522 425 q 697 381 647 404 q 779 317 747 357 q 811 214 811 278 q 790 128 811 169 q 724 56 769 88 q 604 4 678 24 q 425 -15 531 -15 q 281 -8 347 -15 q 164 20 215 -1 q 78 81 113 42 q 28 183 43 119 z "},"t":{"ha":608,"x_min":28,"x_max":553,"o":"m 132 785 l 415 917 l 415 664 l 571 664 l 571 478 l 415 478 l 415 243 q 425 186 415 197 q 472 165 438 165 q 510 169 489 165 q 561 181 532 172 l 581 6 q 479 -10 528 -4 q 386 -15 431 -15 q 260 1 310 -15 q 183 49 211 17 q 143 129 154 81 q 132 244 132 178 l 132 478 l 28 478 l 28 664 l 132 664 l 132 785 z "},"u":{"ha":835,"x_min":28,"x_max":779,"o":"m 807 664 l 807 0 l 543 0 l 543 107 q 424 13 483 40 q 276 -15 364 -15 q 94 48 160 -15 q 28 242 28 111 l 28 664 l 311 664 l 311 299 q 337 210 311 236 q 408 183 363 183 q 492 219 460 183 q 525 344 525 254 l 525 664 l 807 664 z "},"v":{"ha":926,"x_min":28,"x_max":871,"o":"m 335 -1 l 28 663 l 322 663 l 465 242 l 613 663 l 899 663 l 585 -1 l 335 -1 z "},"w":{"ha":1397,"x_min":28,"x_max":1342,"o":"m 300 -1 l 28 663 l 300 663 l 419 244 l 569 663 l 825 663 l 981 244 l 1099 663 l 1369 663 l 1099 -1 l 847 -1 l 697 399 l 553 -1 l 300 -1 z "},"x":{"ha":988,"x_min":28,"x_max":932,"o":"m 294 347 l 42 663 l 376 663 l 494 478 l 631 663 l 942 663 l 690 347 l 960 -1 l 631 -1 l 494 213 l 333 -1 l 28 -1 l 294 347 z "},"y":{"ha":926,"x_min":28,"x_max":871,"o":"m 339 0 l 28 664 l 328 664 l 479 222 l 619 664 l 899 664 l 606 -46 q 504 -211 554 -168 q 281 -271 429 -271 q 203 -267 250 -271 q 92 -256 156 -262 l 69 -78 q 134 -91 100 -86 q 206 -96 168 -96 q 286 -75 256 -96 q 339 0 317 -54 z "},"z":{"ha":792,"x_min":28,"x_max":736,"o":"m 56 489 l 56 663 l 740 663 l 740 514 l 368 174 l 764 174 l 764 -1 l 28 -1 l 28 164 l 381 489 l 56 489 z "},"{":{"ha":575,"x_min":28,"x_max":519,"o":"m 454 932 l 547 932 l 547 726 l 515 726 q 451 710 472 726 q 419 660 429 693 q 413 613 415 646 q 409 542 411 579 q 403 472 407 506 q 394 424 400 439 q 354 364 379 385 q 290 329 336 349 q 358 289 333 313 q 396 236 383 265 q 412 170 408 207 q 415 89 415 133 q 417 16 415 46 q 432 -33 419 -14 q 472 -60 444 -51 q 547 -68 499 -68 l 547 -271 l 460 -271 q 321 -258 378 -271 q 228 -215 264 -246 q 178 -135 193 -185 q 163 -12 163 -86 l 163 32 q 164 46 164 39 q 164 60 164 53 q 155 143 163 113 q 132 190 147 174 q 91 213 117 207 q 28 222 65 218 l 28 438 q 99 449 72 438 q 140 482 125 461 q 158 533 154 503 q 163 601 163 564 l 163 624 l 163 651 q 183 811 163 761 q 239 888 203 861 q 313 918 268 910 q 379 928 344 925 q 454 932 414 932 z "},"|":{"ha":233,"x_min":28,"x_max":178,"o":"m 28 -253 l 28 915 l 206 915 l 206 -253 l 28 -253 z "},"}":{"ha":575,"x_min":28,"x_max":519,"o":"m 119 932 l 28 932 l 28 726 l 58 726 q 124 710 101 726 q 156 660 146 693 q 162 613 160 646 q 166 542 164 579 q 172 472 168 506 q 181 424 175 439 q 219 364 194 386 q 283 329 242 346 q 215 289 240 313 q 178 236 190 265 q 162 170 165 207 q 158 89 158 133 q 156 16 158 46 q 142 -33 154 -14 q 103 -60 129 -51 q 28 -68 76 -68 l 28 -271 l 114 -271 q 253 -258 196 -271 q 345 -215 310 -246 q 396 -135 381 -185 q 411 -12 411 -86 l 411 32 l 411 60 q 419 143 413 113 q 442 190 426 174 q 483 213 457 207 q 547 222 508 218 l 547 438 q 476 449 503 438 q 434 482 449 461 q 415 533 419 503 q 411 601 411 564 l 411 624 l 411 651 q 392 811 411 761 q 336 888 372 861 q 238 923 297 914 q 119 932 179 932 z "},"~":{"ha":851,"x_min":28,"x_max":796,"o":"m 824 607 l 824 403 q 694 326 743 346 q 592 307 644 307 q 512 323 556 307 q 422 357 468 339 q 331 391 376 375 q 247 407 285 407 q 28 307 140 407 l 28 513 q 148 586 92 564 q 271 608 204 608 q 352 593 307 608 q 443 559 397 578 q 533 525 489 540 q 614 510 578 510 q 824 607 708 510 z "}," ":{"ha":694,"x_min":0,"x_max":0,"o":""},"¡":{"ha":358,"x_min":28,"x_max":303,"o":"m 28 -43 l 28 -251 l 331 -251 l 331 -43 l 272 376 l 85 376 l 28 -43 m 39 664 l 39 439 l 319 439 l 319 664 l 39 664 z "},"¢":{"ha":908,"x_min":28,"x_max":853,"o":"m 624 258 l 881 233 q 839 133 867 172 q 702 23 790 65 q 493 -19 614 -19 q 447 -18 478 -19 q 368 -14 415 -17 l 279 -243 l 188 -214 l 274 6 q 94 120 161 38 q 28 331 28 203 q 58 476 28 411 q 141 588 88 542 q 268 660 194 635 q 431 685 342 685 q 470 683 444 685 q 535 679 496 682 l 624 904 l 713 875 l 629 664 q 745 613 700 644 q 821 540 790 582 q 867 451 843 513 l 614 421 q 595 463 604 451 q 565 493 586 475 l 429 146 q 452 144 442 144 q 469 143 463 143 q 564 173 522 143 q 624 258 606 203 m 343 188 l 471 518 l 457 518 q 332 459 368 518 q 296 317 296 400 q 306 242 296 269 q 343 188 317 215 z "},"£":{"ha":919,"x_min":28,"x_max":864,"o":"m 419 526 l 631 526 l 631 378 l 444 378 q 426 292 440 329 q 374 215 411 256 q 440 224 414 224 q 490 219 460 224 q 551 209 519 214 q 611 199 582 204 q 657 194 640 194 q 724 200 696 194 q 797 225 751 206 l 892 40 q 771 -3 822 8 q 658 -15 719 -15 q 589 -10 626 -15 q 510 4 551 -6 q 442 22 467 15 q 399 33 417 29 q 363 39 381 38 q 317 40 344 40 q 118 -15 225 40 l 28 163 q 175 350 175 257 q 174 360 175 353 q 172 378 174 367 l 28 378 l 28 526 l 132 526 q 103 624 106 608 q 99 646 100 633 q 97 672 97 658 q 128 794 97 744 q 212 875 160 844 q 331 919 264 906 q 469 932 397 932 q 713 878 614 932 q 842 692 811 825 l 578 654 q 531 743 557 721 q 472 765 506 765 q 406 742 432 765 q 381 675 381 718 q 383 639 381 653 q 389 610 385 625 q 401 577 393 596 q 419 526 408 558 z "},"¤":{"ha":851,"x_min":28,"x_max":796,"o":"m 28 586 l 171 717 l 271 626 q 426 664 350 664 q 581 626 501 664 l 678 717 l 824 586 l 726 497 q 763 360 763 428 q 726 219 763 294 l 824 132 l 678 0 l 581 90 q 424 54 493 54 q 271 90 351 54 l 176 0 l 28 132 l 126 219 q 88 354 88 289 q 126 497 88 424 l 28 586 m 560 358 q 521 443 560 408 q 426 478 482 478 q 332 443 371 478 q 293 358 293 408 q 332 274 293 308 q 426 240 371 240 q 521 274 482 240 q 560 358 560 308 z "},"¥":{"ha":1007,"x_min":28,"x_max":951,"o":"m 276 521 l 28 915 l 346 915 l 504 604 l 661 915 l 979 915 l 738 521 l 943 521 l 943 382 l 651 382 l 651 307 l 943 307 l 943 167 l 651 167 l 651 0 l 363 0 l 363 167 l 65 167 l 65 307 l 363 307 l 363 382 l 65 382 l 65 521 l 276 521 z "},"¦":{"ha":233,"x_min":28,"x_max":178,"o":"m 28 431 l 28 915 l 206 915 l 206 431 l 28 431 m 28 -253 l 28 232 l 206 232 l 206 -253 l 28 -253 z "},"§":{"ha":906,"x_min":28,"x_max":850,"o":"m 825 724 l 558 697 q 523 748 546 733 q 461 763 500 763 q 392 746 414 763 q 371 704 371 729 q 419 647 371 669 q 553 597 468 625 q 807 479 736 536 q 878 326 878 421 q 851 226 878 271 q 764 135 825 182 q 818 62 800 99 q 836 -24 836 25 q 816 -117 836 -72 q 751 -197 796 -162 q 637 -251 707 -231 q 467 -271 567 -271 q 328 -259 394 -271 q 208 -219 261 -247 q 118 -147 156 -192 q 64 -33 81 -101 l 325 -10 q 382 -77 350 -56 q 461 -99 414 -99 q 533 -78 508 -99 q 557 -28 557 -57 q 528 22 557 -3 q 444 75 494 53 q 339 117 394 97 q 228 159 283 138 q 128 209 172 181 q 56 276 83 238 q 28 369 28 315 q 59 469 28 424 q 165 563 90 514 q 114 631 131 597 q 97 707 97 664 q 114 783 97 749 q 158 844 131 817 q 221 888 186 871 q 292 914 256 906 q 363 926 324 921 q 453 932 403 932 q 585 923 525 932 q 691 891 644 914 q 771 828 738 868 q 825 724 804 788 m 293 476 q 257 407 257 433 q 284 366 257 382 q 364 328 311 350 l 632 219 q 664 288 664 264 q 618 335 664 308 q 511 388 572 361 q 388 438 450 414 q 293 476 325 461 z "},"¨":{"ha":532,"x_min":28,"x_max":476,"o":"m 28 747 l 28 904 l 208 904 l 208 747 l 28 747 m 322 747 l 322 904 l 504 904 l 504 747 l 322 747 z "},"©":{"ha":1118,"x_min":28,"x_max":1063,"o":"m 1089 456 q 1049 272 1092 360 q 933 119 1007 185 q 763 14 860 53 q 558 -22 665 -25 q 356 14 453 -25 q 185 119 258 53 q 69 272 111 185 q 29 456 26 360 q 69 639 26 551 q 185 792 111 726 q 356 897 258 858 q 558 933 453 936 q 763 897 665 936 q 933 792 860 858 q 1049 639 1007 726 q 1089 456 1092 551 m 986 456 q 952 605 986 535 q 860 727 918 675 q 724 810 801 779 q 558 840 646 840 q 393 810 471 840 q 257 727 315 779 q 165 605 199 675 q 131 456 131 535 q 165 306 131 376 q 257 184 199 236 q 393 101 315 132 q 558 71 471 71 q 724 101 646 71 q 860 184 801 132 q 952 306 918 236 q 986 456 986 376 m 683 397 l 825 365 q 753 250 800 292 q 563 186 678 186 q 445 206 499 186 q 353 260 392 225 q 294 346 315 296 q 274 457 274 396 q 295 563 274 514 q 356 647 317 611 q 447 703 394 683 q 564 724 500 724 q 733 675 664 724 q 819 550 801 626 l 683 532 q 638 608 671 583 q 557 632 604 632 q 466 590 503 632 q 429 461 429 549 q 454 333 429 371 q 558 278 492 278 q 635 306 601 278 q 683 397 669 333 z "},"ª":{"ha":561,"x_min":28,"x_max":506,"o":"m 533 475 l 383 475 q 367 517 371 496 q 292 476 328 488 q 203 465 256 465 q 72 502 117 465 q 28 600 28 539 q 65 688 28 654 q 116 714 81 703 q 194 734 151 725 q 279 751 236 743 q 353 769 322 760 q 338 819 353 806 q 283 832 322 832 q 229 822 246 832 q 203 783 213 811 l 50 810 q 76 865 63 842 q 113 903 90 888 q 173 925 136 918 q 267 932 210 932 q 461 897 411 932 q 510 783 510 861 l 510 572 q 515 515 510 533 q 533 475 519 497 m 353 660 l 353 685 q 295 671 324 676 q 243 658 267 665 q 205 641 219 651 q 190 610 190 631 q 209 572 190 588 q 258 557 228 557 q 328 583 303 557 q 353 660 353 608 z "},"«":{"ha":853,"x_min":28,"x_max":797,"o":"m 388 332 l 608 622 l 825 622 l 633 332 l 825 44 l 608 44 l 388 332 m 28 332 l 249 622 l 465 622 l 272 332 l 465 44 l 249 44 l 28 332 z "},"¬":{"ha":814,"x_min":28,"x_max":758,"o":"m 28 506 l 28 708 l 786 708 l 786 197 l 560 197 l 560 506 l 28 506 z "},"­":{"ha":467,"x_min":28,"x_max":411,"o":"m 28 235 l 28 432 l 439 432 l 439 235 l 28 235 z "},"®":{"ha":1118,"x_min":28,"x_max":1063,"o":"m 1089 456 q 1049 272 1092 360 q 933 119 1007 185 q 763 14 860 53 q 558 -22 665 -25 q 356 14 453 -25 q 185 119 258 53 q 69 272 111 185 q 29 456 26 360 q 69 639 26 551 q 185 792 111 726 q 356 897 258 858 q 558 933 453 936 q 763 897 665 936 q 933 792 860 858 q 1049 639 1007 726 q 1089 456 1092 551 m 986 456 q 952 605 986 535 q 860 727 918 675 q 724 810 801 779 q 558 840 646 840 q 393 810 471 840 q 257 727 315 779 q 165 605 199 675 q 131 456 131 535 q 165 306 131 376 q 257 184 199 236 q 393 101 315 132 q 558 71 471 71 q 724 101 646 71 q 860 184 801 132 q 952 306 918 236 q 986 456 986 376 m 319 200 l 319 711 l 572 711 q 728 672 679 711 q 776 567 776 632 q 740 478 776 515 q 624 424 703 440 q 678 395 661 410 q 717 349 694 381 q 808 200 718 347 l 642 200 q 601 278 619 242 q 563 343 582 315 q 524 387 544 371 q 478 403 504 403 q 460 400 467 403 l 460 200 l 319 200 m 460 622 l 460 494 l 521 494 q 607 513 582 494 q 632 558 632 531 q 608 604 632 586 q 526 622 583 622 l 460 622 z "},"¯":{"ha":783,"x_min":0,"x_max":756,"o":"m 28 1065 l 28 1128 l 756 1128 l 756 1065 l 28 1065 z "},"°":{"ha":453,"x_min":28,"x_max":397,"o":"m 425 754 q 409 685 425 718 q 366 628 393 653 q 303 590 339 604 q 225 575 267 575 q 149 590 185 575 q 85 628 113 604 q 43 685 58 653 q 28 754 28 718 q 43 823 28 790 q 85 880 58 856 q 149 919 113 904 q 225 933 185 933 q 303 919 267 933 q 366 880 339 904 q 409 823 393 856 q 425 754 425 790 m 296 756 q 275 800 296 782 q 225 818 254 818 q 176 800 196 818 q 156 756 156 782 q 176 710 156 729 q 225 692 196 692 q 275 710 254 692 q 296 756 296 729 z "},"±":{"ha":813,"x_min":28,"x_max":757,"o":"m 28 472 l 28 669 l 293 669 l 293 903 l 517 903 l 517 669 l 785 669 l 785 472 l 517 472 l 517 250 l 293 250 l 293 472 l 28 472 m 28 0 l 28 193 l 785 193 l 785 0 l 28 0 z "},"²":{"ha":590,"x_min":28,"x_max":535,"o":"m 563 578 l 563 463 l 28 463 q 58 533 40 506 q 103 583 76 561 q 166 628 129 606 q 256 681 203 650 q 319 722 294 704 q 354 750 344 739 q 374 790 374 774 q 310 832 374 832 q 253 816 275 832 q 219 763 231 800 l 49 775 q 82 850 61 825 q 170 910 113 888 q 318 932 228 932 q 501 890 443 932 q 560 792 560 849 q 531 713 560 747 q 489 676 517 696 q 430 639 461 657 q 369 605 399 621 q 319 578 339 589 l 563 578 z "},"³":{"ha":581,"x_min":28,"x_max":525,"o":"m 214 786 l 36 811 q 74 862 53 839 q 119 899 94 885 q 297 933 189 933 q 486 890 419 933 q 531 813 531 863 q 444 713 531 750 q 526 665 500 697 q 553 590 553 633 q 501 499 553 533 q 292 450 432 450 q 88 500 161 450 q 28 583 47 526 l 203 601 q 289 546 224 546 q 349 563 328 546 q 371 603 371 581 q 334 651 371 642 q 228 664 297 661 l 247 753 q 329 767 308 753 q 350 800 350 781 q 293 838 350 838 q 214 786 236 838 z "},"´":{"ha":414,"x_min":28,"x_max":358,"o":"m 28 746 l 144 932 l 386 932 l 163 746 l 28 746 z "},"µ":{"ha":836,"x_min":28,"x_max":781,"o":"m 28 -251 l 28 663 l 311 663 l 311 329 q 335 226 311 261 q 419 192 360 192 q 526 338 526 192 l 526 663 l 808 663 l 808 -1 l 543 -1 l 543 51 q 428 -15 500 -15 q 364 -1 394 -15 q 311 47 333 14 l 311 -251 l 28 -251 z "},"¶":{"ha":1083,"x_min":28,"x_max":1028,"o":"m 381 917 l 1056 917 l 1056 718 l 965 718 l 965 -254 l 758 -254 l 758 718 l 643 718 l 643 -254 l 436 -254 l 436 386 l 389 386 q 244 401 311 386 q 130 447 178 415 q 55 531 82 479 q 28 657 28 582 q 116 850 28 783 q 381 917 204 917 z "},"·":{"ha":358,"x_min":28,"x_max":303,"o":"m 28 329 l 28 585 l 331 585 l 331 329 l 28 329 z "},"¸":{"ha":476,"x_min":28,"x_max":421,"o":"m 96 -103 l 117 -31 q 239 -15 185 -15 q 403 -52 358 -15 q 449 -137 449 -89 q 437 -185 449 -161 q 398 -228 425 -208 q 326 -260 371 -247 q 214 -271 281 -272 q 128 -266 175 -271 q 28 -253 81 -261 l 28 -176 q 102 -186 64 -183 q 182 -189 140 -189 q 263 -175 242 -189 q 283 -137 283 -161 q 266 -106 283 -119 q 213 -93 249 -93 q 158 -96 188 -93 q 96 -103 129 -99 z "},"¹":{"ha":394,"x_min":28,"x_max":339,"o":"m 228 932 l 367 932 l 367 463 l 186 463 l 186 742 q 115 712 147 722 q 28 692 83 701 l 28 821 q 228 932 156 850 z "},"º":{"ha":588,"x_min":28,"x_max":532,"o":"m 29 697 q 45 787 28 744 q 97 862 63 829 q 183 913 132 894 q 299 932 233 932 q 489 867 418 932 q 560 696 560 803 q 488 529 560 593 q 300 465 417 465 q 177 485 229 465 q 92 539 125 506 q 43 614 58 572 q 29 697 28 656 m 201 697 q 222 608 201 643 q 299 572 242 572 q 364 601 339 572 q 389 697 389 629 q 363 796 389 767 q 296 825 338 825 q 227 796 253 825 q 201 697 201 767 z "},"»":{"ha":853,"x_min":28,"x_max":797,"o":"m 465 332 l 244 622 l 28 622 l 219 332 l 28 44 l 244 44 l 465 332 m 825 332 l 604 622 l 388 622 l 581 332 l 388 44 l 604 44 l 825 332 z "},"¼":{"ha":1317,"x_min":28,"x_max":1261,"o":"m 228 932 l 367 932 l 367 463 l 186 463 l 186 743 q 115 713 147 722 q 28 693 83 703 l 28 821 q 228 932 156 850 m 253 -32 l 892 932 l 1040 932 l 400 -32 l 253 -32 m 1064 -31 l 1064 44 l 781 44 l 781 163 l 1072 451 l 1219 451 l 1219 149 l 1289 149 l 1289 44 l 1219 44 l 1219 -31 l 1064 -31 m 922 149 l 1064 149 l 1064 285 l 922 149 z "},"½":{"ha":1331,"x_min":28,"x_max":1275,"o":"m 228 932 l 367 932 l 367 463 l 186 463 l 186 743 q 115 713 147 722 q 28 693 83 703 l 28 821 q 228 932 156 850 m 232 -32 l 871 932 l 1019 932 l 379 -32 l 232 -32 m 1303 96 l 1303 -19 l 768 -19 q 799 51 781 24 q 843 102 817 79 q 907 147 869 125 q 996 200 944 169 q 1094 269 1074 246 q 1114 308 1114 292 q 1098 340 1114 328 q 1050 351 1082 351 q 960 281 979 351 l 789 294 q 822 369 801 344 q 911 429 853 407 q 1058 451 969 451 q 1242 410 1183 451 q 1300 311 1300 368 q 1271 231 1300 268 q 1229 194 1257 214 q 1170 157 1201 175 q 1109 123 1139 139 q 1060 96 1079 107 l 1303 96 z "},"¾":{"ha":1375,"x_min":28,"x_max":1319,"o":"m 214 786 l 36 811 q 74 862 53 839 q 119 897 94 885 q 297 932 189 932 q 486 890 422 932 q 531 813 531 860 q 444 713 531 750 q 526 665 500 697 q 553 590 553 632 q 501 497 553 532 q 292 450 431 450 q 88 500 161 450 q 28 582 47 526 l 203 601 q 289 544 225 544 q 349 562 328 544 q 371 603 371 579 q 334 651 371 642 q 228 664 297 661 l 247 753 q 329 766 308 753 q 350 800 350 779 q 335 826 350 815 q 293 838 321 838 q 214 786 238 838 m 329 -32 l 968 932 l 1117 932 l 476 -32 l 329 -32 m 1122 -31 l 1122 44 l 839 44 l 839 163 l 1131 451 l 1278 451 l 1278 149 l 1347 149 l 1347 44 l 1278 44 l 1278 -31 l 1122 -31 m 981 149 l 1122 149 l 1122 285 l 981 149 z "},"¿":{"ha":825,"x_min":28,"x_max":769,"o":"m 303 376 l 567 376 l 567 353 q 554 263 567 299 q 517 197 542 226 q 455 139 492 167 q 369 75 418 111 q 314 -1 314 33 q 403 -74 314 -74 q 485 -44 453 -74 q 528 58 517 -14 l 797 28 q 689 -187 783 -106 q 400 -269 594 -269 q 156 -211 250 -269 q 28 -7 28 -135 q 72 115 28 68 q 194 217 117 161 q 246 254 225 238 q 279 288 267 271 q 297 325 292 304 q 303 376 303 346 m 575 664 l 575 439 l 292 439 l 292 664 l 575 664 z "},"À":{"ha":1164,"x_min":0,"x_max":1136,"o":"m 799 29 l 742 193 l 410 193 l 363 29 l 28 29 l 278 944 l 879 944 l 1136 29 l 799 29 m 464 392 l 703 392 l 575 753 l 464 392 m 565 1069 l 343 1256 l 585 1256 l 699 1069 l 565 1069 z "},"Á":{"ha":1164,"x_min":0,"x_max":1138,"o":"m 800 -1 l 743 163 l 411 163 l 364 -1 l 29 -1 l 279 914 l 881 914 l 1138 -1 l 800 -1 m 465 361 l 704 361 l 576 722 l 465 361 m 457 1069 l 574 1256 l 815 1256 l 592 1069 l 457 1069 z "},"Â":{"ha":1164,"x_min":28,"x_max":1108,"o":"m 807 0 l 757 151 l 399 151 l 349 0 l 28 0 l 410 917 l 754 917 l 1136 0 l 807 0 m 467 350 l 690 350 l 579 679 l 467 350 m 324 972 l 482 1151 l 683 1151 l 838 972 l 665 972 l 581 1068 l 496 972 l 324 972 z "},"Ã":{"ha":1164,"x_min":28,"x_max":1108,"o":"m 807 0 l 757 151 l 399 151 l 349 0 l 28 0 l 410 915 l 754 915 l 1136 0 l 807 0 m 467 350 l 690 350 l 579 678 l 467 350 m 721 1143 l 829 1143 q 831 1128 831 1135 q 831 1114 831 1121 q 792 1007 831 1044 q 692 969 753 969 q 651 978 679 969 q 590 996 622 986 q 527 1014 557 1006 q 482 1022 497 1022 q 450 1011 461 1022 q 438 972 439 1000 l 329 972 l 329 997 q 370 1104 329 1065 q 468 1143 411 1143 q 513 1135 486 1143 q 570 1116 540 1126 q 628 1097 600 1106 q 676 1089 656 1089 q 707 1101 694 1089 q 721 1143 719 1113 z "},"Ä":{"ha":1164,"x_min":0,"x_max":1136,"o":"m 799 -12 l 742 151 l 410 151 l 363 -12 l 28 -12 l 278 903 l 879 903 l 1136 -12 l 799 -12 m 464 350 l 703 350 l 575 711 l 464 350 m 342 1028 l 342 1185 l 522 1185 l 522 1028 l 342 1028 m 636 1028 l 636 1185 l 818 1185 l 818 1028 l 636 1028 z "},"Å":{"ha":1164,"x_min":28,"x_max":1108,"o":"m 410 915 l 435 915 q 413 992 413 950 q 462 1098 413 1054 q 579 1142 511 1142 q 697 1098 647 1142 q 746 992 746 1054 q 724 915 746 953 l 754 915 l 1136 0 l 807 0 l 754 151 l 401 151 l 349 0 l 28 0 l 410 915 m 507 992 q 528 946 507 964 q 579 928 549 928 q 628 946 608 928 q 649 992 649 964 q 628 1038 649 1019 q 579 1056 608 1056 q 528 1038 549 1056 q 507 992 507 1019 m 475 360 l 682 360 l 579 664 l 475 360 z "},"Æ":{"ha":1481,"x_min":28,"x_max":1425,"o":"m 28 0 l 467 915 l 1439 915 l 1439 719 l 1010 719 l 1010 575 l 1400 575 l 1400 388 l 1010 388 l 1010 207 l 1453 207 l 1453 0 l 714 0 l 714 164 l 411 164 l 344 0 l 28 0 m 714 729 l 644 729 l 497 372 l 714 372 l 714 729 z "},"Ç":{"ha":865,"x_min":0,"x_max":838,"o":"m 838 196 l 838 -17 l 558 -17 q 338 15 436 -17 q 170 106 239 46 q 65 256 101 167 q 28 460 28 344 q 163 809 28 686 q 543 932 297 932 l 838 932 l 838 719 l 550 719 q 451 697 488 714 q 386 642 415 681 q 344 463 344 583 q 388 275 344 346 q 539 196 432 204 l 838 196 m 358 -169 l 379 -97 q 501 -82 447 -82 q 666 -119 621 -82 q 711 -204 711 -156 q 699 -251 711 -228 q 660 -294 688 -275 q 588 -326 633 -314 q 476 -337 543 -339 q 390 -333 438 -337 q 290 -319 343 -328 l 290 -243 q 365 -253 326 -250 q 444 -256 403 -256 q 525 -242 504 -256 q 546 -204 546 -228 q 528 -173 546 -186 q 475 -160 511 -160 q 421 -162 450 -160 q 358 -169 392 -165 z "},"È":{"ha":1024,"x_min":0,"x_max":996,"o":"m 28 -10 l 28 915 l 872 915 l 872 690 l 344 690 l 344 556 l 833 556 l 833 353 l 344 353 l 344 218 l 996 218 l 996 -10 l 28 -10 m 425 1040 l 203 1226 l 444 1226 l 558 1040 l 425 1040 z "},"É":{"ha":1024,"x_min":0,"x_max":996,"o":"m 28 -10 l 28 915 l 872 915 l 872 690 l 344 690 l 344 556 l 833 556 l 833 353 l 344 353 l 344 218 l 996 218 l 996 -10 l 28 -10 m 317 1040 l 433 1226 l 675 1226 l 451 1040 l 317 1040 z "},"Ê":{"ha":914,"x_min":28,"x_max":858,"o":"m 28 0 l 28 917 l 872 917 l 872 719 l 344 719 l 344 575 l 833 575 l 833 388 l 344 388 l 344 207 l 886 207 l 886 0 l 28 0 m 183 972 l 342 1151 l 543 1151 l 697 972 l 525 972 l 440 1068 l 356 972 l 183 972 z "},"Ë":{"ha":1024,"x_min":0,"x_max":996,"o":"m 28 -22 l 28 903 l 872 903 l 872 678 l 344 678 l 344 543 l 833 543 l 833 340 l 344 340 l 344 206 l 996 206 l 996 -22 l 28 -22 m 201 1028 l 201 1185 l 382 1185 l 382 1028 l 201 1028 m 496 1028 l 496 1185 l 678 1185 l 678 1028 l 496 1028 z "},"Ì":{"ha":447,"x_min":0,"x_max":419,"o":"m 104 -12 l 104 903 l 419 903 l 419 -12 l 104 -12 m 250 1028 l 28 1214 l 269 1214 l 383 1028 l 250 1028 z "},"Í":{"ha":451,"x_min":0,"x_max":424,"o":"m 28 -12 l 28 903 l 343 903 l 343 -12 l 28 -12 m 65 1028 l 182 1214 l 424 1214 l 200 1028 l 65 1028 z "},"Î":{"ha":569,"x_min":28,"x_max":514,"o":"m 124 0 l 124 917 l 439 917 l 439 0 l 124 0 m 28 972 l 186 1151 l 388 1151 l 542 972 l 369 972 l 285 1068 l 200 972 l 28 972 z "},"Ï":{"ha":532,"x_min":0,"x_max":504,"o":"m 106 -12 l 106 903 l 421 903 l 421 -12 l 106 -12 m 28 1028 l 28 1185 l 208 1185 l 208 1028 l 28 1028 m 322 1028 l 322 1185 l 504 1185 l 504 1028 l 322 1028 z "},"Ð":{"ha":1099,"x_min":28,"x_max":1043,"o":"m 135 526 l 135 915 l 601 915 q 808 883 719 915 q 954 790 896 850 q 1042 647 1013 731 q 1071 463 1071 564 q 1057 318 1071 389 q 1010 189 1043 247 q 924 88 978 131 q 788 25 869 44 q 601 0 683 0 l 135 0 l 135 388 l 28 388 l 28 526 l 135 526 m 526 708 l 449 708 l 449 526 l 601 526 l 601 388 l 449 388 l 449 207 l 526 207 q 643 222 599 207 q 713 268 688 238 q 747 345 738 299 q 756 454 756 392 q 746 567 756 519 q 711 646 736 614 q 642 693 686 678 q 526 708 597 708 z "},"Ñ":{"ha":1090,"x_min":29,"x_max":1136,"o":"m 656 1143 l 764 1143 q 765 1128 765 1135 q 765 1114 765 1121 q 726 1007 765 1044 q 626 969 688 969 q 585 978 614 969 q 524 996 557 986 q 462 1014 492 1006 q 417 1022 432 1022 q 385 1011 396 1022 q 372 972 374 1000 l 264 972 l 264 997 q 306 1104 264 1065 q 403 1143 347 1143 q 448 1135 421 1143 q 505 1116 475 1126 q 563 1097 535 1106 q 611 1089 590 1089 q 642 1101 631 1089 q 656 1143 653 1113 m 29 1 l 29 917 l 324 917 l 707 411 l 707 917 l 1165 917 l 1165 692 l 1004 692 l 1004 1 l 707 1 l 326 503 l 326 1 l 29 1 z "},"Ò":{"ha":1111,"x_min":0,"x_max":1083,"o":"m 28 444 q 167 794 28 668 q 554 919 306 919 q 946 797 808 919 q 1083 453 1083 674 q 951 95 1082 218 q 567 -28 819 -28 q 344 3 444 -28 q 174 94 244 35 q 66 242 104 154 q 28 444 28 331 m 343 443 q 401 244 343 304 q 556 183 458 183 q 714 243 658 183 q 769 456 769 303 q 711 644 769 585 q 553 704 653 704 q 401 643 458 704 q 343 443 343 582 m 542 1028 l 319 1214 l 561 1214 l 675 1028 l 542 1028 z "},"Ó":{"ha":1111,"x_min":0,"x_max":1083,"o":"m 28 444 q 167 794 28 668 q 554 919 306 919 q 946 797 808 919 q 1083 453 1083 674 q 951 95 1082 218 q 567 -28 819 -28 q 344 3 444 -28 q 174 94 244 35 q 66 242 104 154 q 28 444 28 331 m 343 443 q 401 244 343 304 q 556 183 458 183 q 714 243 658 183 q 769 456 769 303 q 711 644 769 585 q 553 704 653 704 q 401 643 458 704 q 343 443 343 582 m 433 1028 l 550 1214 l 792 1214 l 568 1028 l 433 1028 z "},"Ô":{"ha":1111,"x_min":28,"x_max":1056,"o":"m 28 458 q 167 808 28 682 q 554 933 306 933 q 946 810 808 933 q 1083 465 1083 688 q 951 109 1082 232 q 567 -14 819 -14 q 344 17 444 -14 q 174 108 244 49 q 66 256 104 168 q 28 458 28 344 m 343 457 q 401 258 343 318 q 556 197 458 197 q 714 256 658 197 q 769 469 769 315 q 711 658 769 599 q 553 718 653 718 q 401 658 458 718 q 343 457 343 597 m 300 974 l 458 1151 l 660 1151 l 814 974 l 642 974 l 557 1068 l 472 974 l 300 974 z "},"Õ":{"ha":1111,"x_min":28,"x_max":1056,"o":"m 28 457 q 167 807 28 682 q 554 932 306 932 q 946 809 808 932 q 1083 465 1083 686 q 951 108 1082 232 q 567 -15 819 -15 q 344 16 444 -15 q 174 108 244 47 q 66 256 104 168 q 28 457 28 343 m 343 457 q 401 256 343 317 q 556 196 458 196 q 714 256 658 196 q 769 469 769 315 q 711 658 769 599 q 553 718 653 718 q 401 658 458 718 q 343 457 343 597 m 697 1144 l 806 1144 q 807 1128 807 1135 q 807 1115 807 1122 q 768 1008 807 1046 q 668 971 729 971 q 627 979 656 971 q 566 997 599 988 q 503 1014 533 1006 q 458 1022 474 1022 q 426 1011 438 1022 q 414 972 415 1000 l 306 972 l 306 997 q 347 1105 306 1065 q 444 1144 389 1144 q 490 1136 463 1144 q 547 1117 517 1128 q 604 1099 576 1107 q 653 1090 632 1090 q 683 1102 672 1090 q 697 1144 694 1114 z "},"Ö":{"ha":1111,"x_min":0,"x_max":1083,"o":"m 28 446 q 167 795 28 669 q 554 921 306 921 q 946 798 808 921 q 1083 454 1083 675 q 951 97 1082 219 q 567 -26 819 -26 q 344 5 444 -26 q 174 96 244 36 q 66 244 104 156 q 28 446 28 332 m 343 444 q 401 245 343 306 q 556 185 458 185 q 714 244 658 185 q 769 457 769 304 q 711 646 769 586 q 553 706 653 706 q 401 644 458 706 q 343 444 343 583 m 318 1029 l 318 1186 l 499 1186 l 499 1029 l 318 1029 m 613 1029 l 613 1186 l 794 1186 l 794 1029 l 613 1029 z "},"×":{"ha":817,"x_min":28,"x_max":761,"o":"m 28 654 l 189 800 l 408 601 l 628 800 l 789 654 l 569 458 l 789 260 l 628 115 l 408 314 l 189 115 l 28 260 l 250 458 l 28 654 z "},"Ø":{"ha":1192,"x_min":28,"x_max":1136,"o":"m 938 844 l 1058 947 l 1164 847 l 1043 744 q 1101 617 1079 693 q 1122 460 1122 542 q 983 103 1122 219 q 596 -15 844 -14 q 378 13 469 -15 q 253 72 314 32 l 132 -33 l 28 67 l 150 172 q 67 454 67 286 q 205 806 67 681 q 590 932 343 932 q 938 844 806 932 m 389 375 l 735 672 q 592 717 682 717 q 439 657 497 717 q 381 461 381 597 q 389 375 381 419 m 801 538 l 453 242 q 594 196 506 196 q 751 254 696 196 q 807 458 807 313 q 806 499 807 478 q 801 538 804 519 z "},"Ù":{"ha":1031,"x_min":0,"x_max":1003,"o":"m 689 421 l 689 915 l 1003 915 l 1003 368 q 967 153 1003 231 q 865 37 931 75 q 711 -10 800 -1 q 515 -18 622 -18 q 317 -10 407 -18 q 163 37 226 -1 q 63 153 99 75 q 28 368 28 231 l 28 915 l 342 915 l 342 425 q 353 332 342 365 q 388 282 365 299 q 444 262 411 265 q 518 258 476 258 q 590 263 558 258 q 644 285 622 268 q 678 333 667 301 q 689 421 689 365 m 500 1040 l 278 1226 l 519 1226 l 633 1040 l 500 1040 z "},"Ú":{"ha":1031,"x_min":0,"x_max":1003,"o":"m 689 421 l 689 915 l 1003 915 l 1003 368 q 967 153 1003 231 q 865 37 931 75 q 711 -10 800 -1 q 515 -18 622 -18 q 317 -10 407 -18 q 163 37 226 -1 q 63 153 99 75 q 28 368 28 231 l 28 915 l 342 915 l 342 425 q 353 332 342 365 q 388 282 365 299 q 444 262 411 265 q 518 258 476 258 q 590 263 558 258 q 644 285 622 268 q 678 333 667 301 q 689 421 689 365 m 392 1040 l 508 1226 l 750 1226 l 526 1040 l 392 1040 z "},"Û":{"ha":1031,"x_min":28,"x_max":975,"o":"m 689 358 l 689 917 l 1003 917 l 1003 371 q 988 260 1003 315 q 942 158 972 206 q 867 72 913 110 q 761 15 822 35 q 660 -8 714 0 q 540 -15 606 -15 q 391 -6 467 -15 q 249 28 315 3 q 131 97 182 53 q 56 215 81 142 q 28 371 28 299 l 28 917 l 342 917 l 342 358 q 388 241 342 283 q 515 199 433 199 q 643 240 597 199 q 689 358 689 281 m 258 974 l 417 1151 l 618 1151 l 772 974 l 600 974 l 515 1068 l 431 974 l 258 974 z "},"Ü":{"ha":1031,"x_min":0,"x_max":1003,"o":"m 689 410 l 689 904 l 1003 904 l 1003 357 q 967 142 1003 219 q 865 26 931 64 q 711 -21 800 -12 q 515 -29 622 -29 q 317 -21 407 -29 q 163 26 226 -12 q 63 142 99 64 q 28 357 28 219 l 28 904 l 342 904 l 342 414 q 353 321 342 354 q 388 271 365 288 q 444 251 411 254 q 518 247 476 247 q 590 252 558 247 q 644 274 622 257 q 678 322 667 290 q 689 410 689 354 m 276 1029 l 276 1186 l 457 1186 l 457 1029 l 276 1029 m 571 1029 l 571 1186 l 753 1186 l 753 1029 l 571 1029 z "},"Ý":{"ha":1163,"x_min":0,"x_max":1135,"o":"m 424 372 l 28 904 l 376 904 l 582 596 l 788 904 l 1135 904 l 740 372 l 740 -11 l 424 -11 l 424 372 m 457 1029 l 574 1215 l 815 1215 l 592 1029 l 457 1029 z "},"Þ":{"ha":919,"x_min":28,"x_max":864,"o":"m 28 0 l 28 915 l 344 915 l 344 751 l 550 751 q 806 678 721 751 q 892 471 892 606 q 799 255 892 333 q 517 176 706 176 l 344 176 l 344 0 l 28 0 m 344 567 l 344 363 l 421 363 q 549 391 511 363 q 586 463 586 419 q 554 536 586 506 q 433 567 522 567 l 344 567 z "},"ß":{"ha":871,"x_min":28,"x_max":815,"o":"m 297 0 l 28 0 l 28 635 q 47 752 28 697 q 111 847 67 807 q 227 909 156 886 q 403 932 299 932 q 645 878 571 932 q 719 744 719 824 q 707 697 719 728 q 679 633 694 667 q 651 570 664 600 q 639 525 639 540 q 648 492 639 507 q 688 451 657 478 q 817 307 776 379 q 843 196 843 258 q 774 44 843 104 q 590 -15 706 -15 q 458 5 514 -15 q 351 78 403 25 l 514 165 q 561 138 536 138 q 601 151 585 138 q 617 188 617 165 q 591 242 617 214 q 530 300 565 269 q 457 364 494 331 q 397 433 419 397 q 388 459 392 446 q 383 488 383 472 q 397 533 383 503 q 425 597 410 563 q 453 661 440 631 q 467 707 467 692 q 445 753 467 735 q 389 772 424 772 q 324 743 350 772 q 297 640 297 714 l 297 0 z "},"à":{"ha":906,"x_min":0,"x_max":878,"o":"m 321 435 l 50 460 q 94 561 65 525 q 178 624 124 597 q 285 653 217 642 q 432 664 353 664 q 635 651 558 664 q 764 599 713 639 q 821 519 800 569 q 842 421 842 468 l 842 126 q 849 53 842 79 q 878 -15 856 26 l 613 -15 q 592 24 597 11 q 582 67 588 38 q 527 26 554 43 q 472 -1 500 8 q 391 -23 435 -17 q 297 -29 347 -29 q 97 25 165 -29 q 28 160 28 79 q 78 285 28 236 q 260 358 126 333 q 365 377 326 371 q 433 389 404 383 q 492 403 463 394 q 567 428 521 411 q 545 494 567 475 q 469 513 524 513 q 364 493 397 513 q 321 435 338 478 m 567 260 l 567 300 q 506 283 538 290 q 444 268 475 275 q 344 234 376 253 q 311 181 311 215 q 335 131 311 150 q 403 111 358 111 q 522 153 478 111 q 567 260 567 194 m 438 788 l 215 974 l 457 974 l 571 788 l 438 788 z "},"á":{"ha":906,"x_min":0,"x_max":878,"o":"m 321 435 l 50 460 q 94 561 65 525 q 178 624 124 597 q 285 653 217 642 q 432 664 353 664 q 635 651 558 664 q 764 599 713 639 q 821 519 800 569 q 842 421 842 468 l 842 126 q 849 53 842 79 q 878 -15 856 26 l 613 -15 q 592 24 597 11 q 582 67 588 38 q 527 26 554 43 q 472 -1 500 8 q 391 -23 435 -17 q 297 -29 347 -29 q 97 25 165 -29 q 28 160 28 79 q 78 285 28 236 q 260 358 126 333 q 365 377 326 371 q 433 389 404 383 q 492 403 463 394 q 567 428 521 411 q 545 494 567 475 q 469 513 524 513 q 364 493 397 513 q 321 435 338 478 m 567 260 l 567 300 q 506 283 538 290 q 444 268 475 275 q 344 234 376 253 q 311 181 311 215 q 335 131 311 150 q 403 111 358 111 q 522 153 478 111 q 567 260 567 194 m 329 788 l 446 974 l 688 974 l 464 788 l 329 788 z "},"â":{"ha":906,"x_min":28,"x_max":850,"o":"m 321 449 l 50 475 q 94 575 65 539 q 178 638 124 611 q 285 668 217 657 q 432 679 353 679 q 635 666 558 679 q 764 613 713 653 q 821 533 800 585 q 842 436 842 482 l 842 142 q 849 68 842 94 q 878 0 856 42 l 613 0 q 592 40 597 26 q 582 82 588 53 q 472 13 528 33 q 297 -14 399 -14 q 97 40 165 -14 q 28 175 28 94 q 78 300 28 253 q 260 372 128 350 q 365 391 326 385 q 433 403 404 397 q 492 418 463 410 q 567 443 521 426 q 545 509 567 490 q 469 528 524 528 q 364 508 397 528 q 321 449 336 490 m 567 275 l 567 315 q 506 298 538 306 q 444 283 475 290 q 344 249 376 268 q 311 196 311 231 q 335 146 311 165 q 403 126 358 126 q 522 168 478 126 q 567 275 567 210 m 196 746 l 354 924 l 556 924 l 710 746 l 538 746 l 453 840 l 368 746 l 196 746 z "},"ã":{"ha":906,"x_min":28,"x_max":850,"o":"m 321 449 l 50 475 q 94 575 65 539 q 178 638 124 611 q 285 668 217 657 q 432 679 353 679 q 635 666 558 679 q 764 613 713 653 q 821 533 800 585 q 842 435 842 482 l 842 142 q 849 68 842 94 q 878 0 856 42 l 613 0 q 592 39 597 25 q 582 81 588 53 q 472 13 526 33 q 297 -15 396 -15 q 97 40 165 -15 q 28 175 28 94 q 78 300 28 253 q 260 372 128 347 q 365 391 326 385 q 433 403 404 397 q 492 418 463 410 q 567 443 521 426 q 545 509 567 490 q 469 528 524 528 q 364 507 400 528 q 321 449 338 492 m 567 275 l 567 315 q 506 298 538 306 q 444 282 475 290 q 344 249 376 267 q 311 194 311 231 q 335 146 311 165 q 403 126 358 126 q 522 168 478 126 q 567 275 567 210 m 593 917 l 701 917 q 703 901 703 908 q 703 888 703 894 q 664 781 703 818 q 564 743 625 743 q 523 751 551 743 q 462 769 494 760 q 399 786 429 778 q 354 794 369 794 q 322 783 333 794 q 310 744 311 772 l 201 744 l 201 769 q 242 877 201 838 q 340 917 283 917 q 385 908 358 917 q 442 890 413 900 q 500 871 472 879 q 549 863 528 863 q 579 874 567 863 q 593 917 592 886 z "},"ä":{"ha":906,"x_min":0,"x_max":878,"o":"m 321 436 l 50 461 q 94 563 65 526 q 178 625 124 599 q 285 654 217 643 q 432 665 353 665 q 635 653 558 665 q 764 600 713 640 q 821 520 800 571 q 842 422 842 469 l 842 128 q 849 54 842 81 q 878 -14 856 28 l 613 -14 q 592 26 597 13 q 582 68 588 39 q 527 27 554 44 q 472 0 500 10 q 391 -22 435 -15 q 297 -28 347 -28 q 97 26 165 -28 q 28 161 28 81 q 78 286 28 238 q 260 360 126 335 q 365 378 326 372 q 433 390 404 385 q 492 404 463 396 q 567 429 521 413 q 545 495 567 476 q 469 514 524 514 q 364 494 397 514 q 321 436 338 479 m 567 261 l 567 301 q 506 284 538 292 q 444 269 475 276 q 344 235 376 254 q 311 182 311 217 q 335 132 311 151 q 403 113 358 113 q 522 154 478 113 q 567 261 567 196 m 214 789 l 214 946 l 394 946 l 394 789 l 214 789 m 508 789 l 508 946 l 690 946 l 690 789 l 508 789 z "},"å":{"ha":906,"x_min":28,"x_max":850,"o":"m 321 449 l 50 474 q 94 575 65 539 q 178 638 124 611 q 285 667 217 656 q 432 678 353 678 q 635 665 558 678 q 764 613 713 653 q 821 533 800 583 q 842 435 842 482 l 842 140 q 849 67 842 93 q 878 -1 856 40 l 613 -1 q 592 38 597 25 q 582 81 588 51 q 527 40 554 57 q 472 13 500 22 q 391 -9 435 -3 q 297 -15 347 -15 q 97 39 165 -15 q 28 174 28 93 q 78 299 28 250 q 260 372 126 347 q 365 391 326 385 q 433 403 404 397 q 492 417 463 408 q 567 442 521 425 q 545 508 567 489 q 469 526 524 526 q 364 507 397 526 q 321 449 338 492 m 567 274 l 567 314 q 506 297 538 304 q 444 282 475 289 q 344 248 376 267 q 311 194 311 229 q 335 144 311 164 q 403 125 358 125 q 522 167 478 125 q 567 274 567 208 m 618 876 q 569 770 618 814 q 451 726 519 726 q 334 770 383 726 q 285 876 285 814 q 334 983 285 939 q 451 1026 383 1026 q 569 983 519 1026 q 618 876 618 939 m 524 876 q 503 922 524 903 q 451 942 482 942 q 400 922 421 942 q 379 876 379 903 q 400 831 379 850 q 451 813 421 813 q 503 831 482 813 q 524 876 524 850 z "},"æ":{"ha":1390,"x_min":28,"x_max":1335,"o":"m 1363 311 l 1363 269 l 828 269 q 867 172 833 208 q 960 135 900 135 q 1020 149 994 135 q 1069 197 1046 163 l 1344 176 q 1199 33 1289 82 q 961 -15 1110 -15 q 764 14 847 -15 q 644 89 700 38 q 482 9 558 33 q 311 -15 406 -15 q 99 38 171 -15 q 28 176 28 92 q 82 298 28 251 q 206 364 136 344 q 248 374 213 367 q 325 389 283 381 q 402 404 367 397 q 444 413 438 411 q 495 424 468 417 q 553 440 522 431 q 530 508 551 490 q 453 526 508 526 q 365 507 394 526 q 325 447 336 488 l 53 476 q 100 576 74 543 q 212 651 136 622 q 425 679 288 679 q 606 663 535 679 q 658 643 631 656 q 717 613 686 631 q 833 664 781 650 q 957 678 885 678 q 1101 661 1038 678 q 1210 617 1164 644 q 1288 554 1257 589 q 1336 482 1319 519 q 1356 408 1350 451 q 1363 311 1363 364 m 825 390 l 1081 390 q 1044 491 1075 456 q 957 526 1014 526 q 872 494 907 526 q 825 390 836 461 m 553 269 l 553 317 l 467 290 q 451 287 458 289 q 438 285 444 285 q 342 249 369 272 q 314 200 314 225 q 337 150 314 171 q 397 129 360 129 q 505 165 457 129 q 553 269 553 200 z "},"ç":{"ha":908,"x_min":0,"x_max":881,"o":"m 613 260 l 881 232 q 751 51 843 118 q 478 -15 658 -15 q 301 3 383 -15 q 158 64 219 22 q 63 171 97 106 q 28 328 28 236 q 67 499 28 431 q 144 588 94 549 q 246 647 194 628 q 457 678 328 678 q 733 619 639 678 q 865 449 828 561 l 600 418 q 465 504 574 504 q 353 459 396 504 q 310 322 310 414 q 353 197 310 240 q 463 154 396 154 q 613 260 576 154 m 294 -156 l 315 -83 q 438 -68 383 -68 q 602 -105 557 -68 q 647 -190 647 -142 q 635 -237 647 -214 q 597 -281 624 -261 q 524 -312 569 -300 q 413 -324 479 -325 q 326 -319 374 -324 q 226 -306 279 -314 l 226 -229 q 301 -239 263 -236 q 381 -242 339 -242 q 461 -228 440 -242 q 482 -190 482 -214 q 465 -159 482 -172 q 411 -146 447 -146 q 357 -149 386 -146 q 294 -156 328 -151 z "},"è":{"ha":910,"x_min":0,"x_max":882,"o":"m 882 297 l 882 268 l 315 268 q 353 176 324 208 q 458 135 392 135 q 527 147 499 135 q 588 194 556 160 l 867 172 q 790 79 831 115 q 699 22 749 43 q 590 -7 650 1 q 453 -15 529 -15 q 283 6 361 -15 q 149 71 206 28 q 60 178 92 114 q 28 329 28 243 q 59 476 28 411 q 145 586 90 542 q 276 654 200 631 q 444 678 353 678 q 769 583 656 678 q 882 297 882 488 m 317 389 l 594 389 q 550 494 586 463 q 456 526 514 526 q 358 490 393 526 q 317 389 322 453 m 438 801 l 215 988 l 457 988 l 571 801 l 438 801 z "},"é":{"ha":910,"x_min":0,"x_max":882,"o":"m 882 297 l 882 268 l 315 268 q 353 176 324 208 q 458 135 392 135 q 527 147 499 135 q 588 194 556 160 l 867 172 q 790 79 831 115 q 699 22 749 43 q 590 -7 650 1 q 453 -15 529 -15 q 283 6 361 -15 q 149 71 206 28 q 60 178 92 114 q 28 329 28 243 q 59 476 28 411 q 145 586 90 542 q 276 654 200 631 q 444 678 353 678 q 769 583 656 678 q 882 297 882 488 m 317 389 l 594 389 q 550 494 586 463 q 456 526 514 526 q 358 490 393 526 q 317 389 322 453 m 329 801 l 446 988 l 688 988 l 464 801 l 329 801 z "},"ê":{"ha":910,"x_min":28,"x_max":854,"o":"m 882 297 l 882 269 l 315 269 q 353 178 324 207 q 458 136 390 136 q 527 149 499 136 q 588 196 556 161 l 867 172 q 790 81 831 117 q 699 24 749 44 q 590 -6 650 3 q 453 -14 529 -14 q 283 8 361 -14 q 149 72 206 29 q 60 178 92 114 q 28 331 28 243 q 59 477 28 413 q 145 587 90 542 q 276 656 200 632 q 444 679 353 679 q 769 584 656 679 q 882 297 882 489 m 317 390 l 594 390 q 550 496 586 464 q 456 528 514 528 q 358 491 393 528 q 317 390 322 454 m 196 746 l 354 924 l 556 924 l 710 746 l 538 746 l 453 840 l 368 746 l 196 746 z "},"ë":{"ha":910,"x_min":0,"x_max":882,"o":"m 882 285 l 882 256 l 315 256 q 353 164 324 196 q 458 122 392 122 q 527 135 499 122 q 588 182 556 147 l 867 160 q 790 67 831 103 q 699 10 749 31 q 590 -19 650 -11 q 453 -28 529 -28 q 283 -6 361 -28 q 149 58 206 15 q 60 166 92 101 q 28 317 28 231 q 59 464 28 399 q 145 574 90 529 q 276 642 200 618 q 444 665 353 665 q 769 570 656 665 q 882 285 882 475 m 317 376 l 594 376 q 550 482 586 450 q 456 514 514 514 q 358 477 393 514 q 317 376 322 440 m 214 789 l 214 946 l 394 946 l 394 789 l 214 789 m 508 789 l 508 946 l 690 946 l 690 789 l 508 789 z "},"ì":{"ha":433,"x_min":28,"x_max":378,"o":"m 124 0 l 124 664 l 406 664 l 406 0 l 124 0 m 250 746 l 28 933 l 269 933 l 383 746 l 250 746 z "},"í":{"ha":432,"x_min":28,"x_max":376,"o":"m 28 0 l 28 664 l 310 664 l 310 0 l 28 0 m 46 746 l 163 933 l 404 933 l 181 746 l 46 746 z "},"î":{"ha":569,"x_min":28,"x_max":514,"o":"m 143 0 l 143 664 l 425 664 l 425 0 l 143 0 m 28 744 l 186 924 l 388 924 l 542 744 l 369 744 l 285 840 l 200 744 l 28 744 z "},"ï":{"ha":532,"x_min":28,"x_max":476,"o":"m 125 0 l 125 664 l 407 664 l 407 0 l 125 0 m 28 747 l 28 904 l 208 904 l 208 747 l 28 747 m 322 747 l 322 904 l 504 904 l 504 747 l 322 747 z "},"ð":{"ha":899,"x_min":28,"x_max":843,"o":"m 224 682 l 197 750 l 374 806 q 293 870 329 846 q 211 917 257 894 l 497 917 q 537 894 518 906 q 575 871 556 883 l 717 917 l 742 853 l 640 819 q 871 364 871 611 q 759 85 871 186 q 453 -15 647 -15 q 287 8 364 -15 q 152 76 210 32 q 61 185 94 121 q 28 332 28 250 q 53 457 28 397 q 124 563 79 517 q 232 636 169 608 q 369 664 294 664 q 443 656 410 664 q 517 625 476 647 q 471 693 493 661 q 428 750 449 725 l 224 682 m 311 331 q 351 199 311 242 q 447 157 390 157 q 559 212 526 157 q 592 343 592 267 q 579 419 592 388 q 547 469 567 450 q 501 497 526 489 q 450 506 476 506 q 351 463 392 506 q 311 331 311 421 z "},"ñ":{"ha":835,"x_min":28,"x_max":779,"o":"m 28 0 l 28 663 l 290 663 l 290 554 q 410 649 350 621 q 557 678 471 678 q 741 615 675 678 q 807 422 807 553 l 807 0 l 522 0 l 522 364 q 497 453 522 428 q 425 479 472 479 q 342 444 374 479 q 310 318 310 408 l 310 0 l 28 0 m 557 915 l 665 915 q 667 901 667 907 q 667 888 667 894 q 628 780 667 818 q 528 742 589 742 q 487 750 515 742 q 426 768 458 758 q 363 786 393 778 q 318 794 333 794 q 286 783 297 794 q 274 744 275 772 l 165 744 l 165 769 q 206 876 165 838 q 304 915 247 915 q 349 907 322 915 q 406 889 376 899 q 464 871 436 879 q 513 863 492 863 q 543 874 531 863 q 557 915 556 885 z "},"ò":{"ha":903,"x_min":0,"x_max":875,"o":"m 28 315 q 60 462 28 397 q 149 571 93 526 q 283 640 206 615 q 450 664 361 664 q 785 549 672 664 q 875 319 875 457 q 843 172 875 236 q 754 63 811 107 q 619 -6 697 18 q 450 -29 542 -29 q 164 51 274 -29 q 28 315 28 154 m 311 315 q 351 185 311 228 q 453 143 392 143 q 553 185 514 143 q 592 318 592 226 q 552 447 592 404 q 454 489 513 489 q 352 447 393 489 q 311 315 311 404 m 438 788 l 215 974 l 457 974 l 571 788 l 438 788 z "},"ó":{"ha":903,"x_min":0,"x_max":875,"o":"m 28 315 q 60 462 28 397 q 149 571 93 526 q 283 640 206 615 q 450 664 361 664 q 785 549 672 664 q 875 319 875 457 q 843 172 875 236 q 754 63 811 107 q 619 -6 697 18 q 450 -29 542 -29 q 164 51 274 -29 q 28 315 28 154 m 311 315 q 351 185 311 228 q 453 143 392 143 q 553 185 514 143 q 592 318 592 226 q 552 447 592 404 q 454 489 513 489 q 352 447 393 489 q 311 315 311 404 m 329 788 l 446 974 l 688 974 l 464 788 l 329 788 z "},"ô":{"ha":903,"x_min":28,"x_max":847,"o":"m 28 331 q 60 476 28 411 q 149 586 93 542 q 283 655 206 631 q 450 679 361 679 q 785 563 672 679 q 875 335 875 472 q 843 187 875 251 q 754 77 811 122 q 619 9 697 32 q 450 -14 542 -14 q 164 67 271 -14 q 28 331 28 169 m 311 331 q 351 200 311 242 q 453 158 392 158 q 553 200 514 158 q 592 333 592 242 q 552 462 592 419 q 454 504 513 504 q 352 461 393 504 q 311 331 311 418 m 196 746 l 354 924 l 556 924 l 710 746 l 538 746 l 453 840 l 368 746 l 196 746 z "},"õ":{"ha":903,"x_min":28,"x_max":847,"o":"m 28 331 q 60 476 28 411 q 149 585 93 540 q 283 655 206 631 q 450 679 361 679 q 785 563 672 679 q 875 333 875 472 q 843 185 875 250 q 754 76 811 121 q 619 8 697 32 q 450 -15 542 -15 q 164 67 274 -15 q 28 331 28 167 m 311 331 q 351 199 311 242 q 453 157 392 157 q 553 199 514 157 q 592 332 592 240 q 552 461 592 418 q 454 504 513 504 q 352 461 393 504 q 311 331 311 418 m 593 917 l 701 917 q 703 901 703 908 q 703 888 703 894 q 664 781 703 818 q 564 743 625 743 q 523 751 551 743 q 462 769 494 760 q 399 786 429 778 q 354 794 369 794 q 322 783 333 794 q 310 744 311 772 l 201 744 l 201 769 q 242 877 201 838 q 340 917 283 917 q 385 908 358 917 q 442 890 413 900 q 500 871 472 879 q 549 863 528 863 q 579 874 567 863 q 593 917 592 886 z "},"ö":{"ha":903,"x_min":0,"x_max":875,"o":"m 28 317 q 60 463 28 399 q 149 572 93 528 q 283 641 206 617 q 450 665 361 665 q 785 550 672 665 q 875 321 875 458 q 843 173 875 238 q 754 64 811 108 q 619 -4 697 19 q 450 -28 542 -28 q 164 53 274 -28 q 28 317 28 156 m 311 317 q 351 187 311 229 q 453 144 392 144 q 553 186 514 144 q 592 319 592 228 q 552 448 592 406 q 454 490 513 490 q 352 448 393 490 q 311 317 311 406 m 214 789 l 214 946 l 394 946 l 394 789 l 214 789 m 508 789 l 508 946 l 690 946 l 690 789 l 508 789 z "},"÷":{"ha":813,"x_min":28,"x_max":757,"o":"m 265 617 l 265 847 l 544 847 l 544 617 l 265 617 m 28 356 l 28 560 l 785 560 l 785 356 l 28 356 m 265 64 l 265 299 l 544 299 l 544 64 l 265 64 z "},"ø":{"ha":903,"x_min":28,"x_max":847,"o":"m 686 629 l 778 722 l 850 663 l 764 578 q 843 476 811 542 q 875 332 875 410 q 844 186 875 250 q 757 77 813 122 q 625 8 701 32 q 458 -15 549 -15 q 385 -12 419 -15 q 321 -3 351 -10 q 217 32 276 4 l 125 -61 l 53 -1 l 140 85 q 54 199 81 142 q 28 328 28 256 q 60 473 28 408 q 147 583 92 538 q 279 653 203 629 q 446 678 356 678 q 519 674 485 678 q 585 664 554 671 q 686 629 628 656 m 304 247 l 547 489 q 514 513 531 506 q 453 522 485 522 q 338 474 383 522 q 292 325 292 425 q 304 247 292 292 m 600 413 l 356 168 q 404 144 383 150 q 456 138 425 138 q 567 186 524 138 q 611 339 611 235 q 600 413 611 368 z "},"ù":{"ha":835,"x_min":0,"x_max":807,"o":"m 807 663 l 807 -1 l 543 -1 l 543 106 q 424 11 483 39 q 276 -17 364 -17 q 94 47 160 -17 q 28 240 28 110 l 28 663 l 311 663 l 311 297 q 337 208 311 235 q 408 182 363 182 q 492 217 460 182 q 525 343 525 253 l 525 663 l 807 663 m 404 801 l 182 988 l 424 988 l 538 801 l 404 801 z "},"ú":{"ha":835,"x_min":0,"x_max":807,"o":"m 807 663 l 807 -1 l 543 -1 l 543 106 q 424 11 483 39 q 276 -17 364 -17 q 94 47 160 -17 q 28 240 28 110 l 28 663 l 311 663 l 311 297 q 337 208 311 235 q 408 182 363 182 q 492 217 460 182 q 525 343 525 253 l 525 663 l 807 663 m 296 801 l 413 988 l 654 988 l 431 801 l 296 801 z "},"û":{"ha":835,"x_min":28,"x_max":779,"o":"m 807 664 l 807 0 l 543 0 l 543 108 q 424 14 483 42 q 276 -14 364 -14 q 94 49 160 -14 q 28 242 28 111 l 28 664 l 311 664 l 311 299 q 337 210 311 236 q 408 185 363 185 q 492 219 460 185 q 525 346 525 254 l 525 664 l 807 664 m 163 746 l 321 924 l 522 924 l 676 746 l 504 746 l 419 840 l 335 746 l 163 746 z "},"ü":{"ha":835,"x_min":0,"x_max":807,"o":"m 807 650 l 807 -14 l 543 -14 l 543 93 q 424 -1 483 26 q 276 -29 364 -29 q 94 34 160 -29 q 28 228 28 97 l 28 650 l 311 650 l 311 285 q 337 196 311 222 q 408 169 363 169 q 492 205 460 169 q 525 331 525 240 l 525 650 l 807 650 m 181 789 l 181 946 l 361 946 l 361 789 l 181 789 m 475 789 l 475 946 l 657 946 l 657 789 l 475 789 z "},"ý":{"ha":926,"x_min":0,"x_max":899,"o":"m 339 -28 l 28 636 l 328 636 l 479 194 l 619 636 l 899 636 l 606 -74 q 504 -239 554 -196 q 281 -299 429 -299 q 203 -294 250 -299 q 92 -283 156 -290 l 69 -106 q 134 -119 100 -114 q 206 -124 168 -124 q 286 -103 256 -124 q 339 -28 317 -82 m 336 789 l 453 975 l 694 975 l 471 789 l 336 789 z "},"þ":{"ha":868,"x_min":28,"x_max":813,"o":"m 314 -253 l 28 -253 l 28 915 l 314 915 l 314 599 q 407 659 358 640 q 524 678 456 678 q 665 649 606 678 q 764 570 725 619 q 822 457 803 521 q 840 324 840 393 q 752 72 840 158 q 529 -15 664 -15 q 314 64 401 -15 l 314 -253 m 311 329 q 349 212 311 250 q 442 174 386 174 q 524 210 490 174 q 558 335 558 247 q 524 453 558 415 q 439 492 489 492 q 348 453 385 492 q 311 329 311 414 z "},"ÿ":{"ha":926,"x_min":0,"x_max":899,"o":"m 339 -15 l 28 649 l 328 649 l 479 207 l 619 649 l 899 649 l 606 -61 q 504 -226 554 -183 q 281 -286 429 -286 q 203 -282 250 -286 q 92 -271 156 -278 l 69 -93 q 134 -106 100 -101 q 206 -111 168 -111 q 286 -90 256 -111 q 339 -15 317 -69 m 221 801 l 221 958 l 401 958 l 401 801 l 221 801 m 515 801 l 515 958 l 697 958 l 697 801 l 515 801 z "}}}
